<?xml version="1.0" standalone="no"?>
<!DOCTYPE svg PUBLIC "-//W3C//DTD SVG 20010904//EN"
 "http://www.w3.org/TR/2001/REC-SVG-20010904/DTD/svg10.dtd">
<svg version="1.0" xmlns="http://www.w3.org/2000/svg"
 width="1280.000000pt" height="640.000000pt" viewBox="0 0 1280.000000 640.000000"
 preserveAspectRatio="xMidYMid meet">
<metadata>
Created by potrace 1.15, written by Peter Selinger 2001-2017
</metadata>
<g transform="translate(0.000000,640.000000) scale(0.100000,-0.100000)"
fill="#000000" stroke="none">
<path d="M4640 5873 c-36 -2 -243 -19 -460 -39 -524 -47 -666 -76 -800 -166
-76 -50 -136 -128 -162 -210 -20 -60 -20 -86 -19 -573 0 -280 4 -564 7 -630 6
-135 0 -155 -55 -192 -18 -12 -58 -32 -89 -44 -62 -23 -266 -69 -307 -69 -28
0 -30 2 -69 127 -33 108 -83 210 -148 307 -29 43 -58 87 -64 98 -7 11 -16 24
-21 29 -6 6 -100 4 -244 -5 -129 -9 -409 -22 -624 -31 -214 -9 -404 -18 -421
-21 -61 -9 -61 -17 6 -219 34 -102 60 -188 57 -191 -3 -3 -41 0 -84 6 -60 9
-89 19 -128 45 -65 43 -121 58 -220 58 -193 -1 -303 -72 -450 -292 -209 -315
-345 -772 -345 -1161 0 -173 11 -236 66 -405 47 -142 87 -217 149 -280 68 -69
114 -90 196 -90 66 0 66 0 59 -25 -14 -47 -28 -77 -59 -127 -17 -28 -31 -56
-31 -62 0 -7 12 -23 26 -36 21 -19 38 -25 74 -25 63 0 199 24 284 50 49 15 71
18 80 11 9 -7 15 -53 19 -134 13 -265 117 -508 301 -704 97 -103 170 -161 279
-218 212 -113 509 -160 767 -120 346 52 659 239 861 511 46 63 40 63 185 3
160 -64 210 -74 389 -74 136 0 173 4 245 23 231 63 447 204 570 371 l45 62
675 -5 c371 -3 1166 -7 1765 -8 l1090 -3 105 27 c137 36 484 114 607 137 213
40 540 133 634 181 22 12 44 19 47 16 3 -3 9 -56 13 -117 11 -143 23 -212 60
-334 114 -370 413 -652 806 -756 111 -30 312 -36 466 -15 273 38 497 137 701
308 151 127 240 246 323 432 30 66 57 123 59 125 2 2 1 -24 -3 -59 l-6 -63 38
7 c113 21 260 108 344 203 75 84 146 233 166 345 3 21 10 38 15 38 23 0 -33
-193 -80 -275 -100 -173 -258 -292 -435 -328 -38 -7 -71 -19 -73 -25 -11 -33
141 3 249 59 203 105 345 314 384 561 4 25 14 42 28 50 31 16 191 67 196 62 8
-8 1 -137 -10 -199 -38 -213 -179 -444 -358 -587 -160 -129 -338 -196 -531
-203 -58 -2 -107 -4 -109 -4 -2 -1 3 -8 10 -17 12 -14 28 -16 108 -10 185 13
341 66 484 165 189 131 352 368 407 592 30 119 37 299 16 416 -27 157 -99 325
-181 423 -36 43 -45 70 -22 70 21 0 95 -110 152 -225 91 -183 116 -327 96
-547 -18 -205 -88 -371 -235 -554 -179 -224 -464 -357 -759 -353 -85 1 -112
-2 -124 -14 -13 -13 -10 -17 32 -33 45 -17 53 -17 172 -1 277 39 469 130 644
307 193 196 305 437 325 697 20 270 -98 594 -294 802 -39 41 -54 66 -62 103
-15 73 -13 201 5 246 13 33 22 40 62 50 31 9 60 27 89 55 79 79 81 176 6 235
-53 40 -241 144 -252 137 -12 -8 -173 25 -186 39 -7 6 -21 41 -33 77 -12 36
-32 76 -46 89 -23 22 -25 22 -206 13 l-182 -9 -44 -49 c-40 -46 -45 -48 -57
-33 -9 13 -15 73 -18 195 -5 150 -9 187 -28 235 -46 122 -125 204 -209 215
-42 6 -43 6 -36 39 7 41 -9 74 -36 74 -16 0 -18 3 -9 19 31 58 -3 174 -54 187
-68 17 -102 -35 -93 -141 l6 -71 -29 -11 -30 -11 17 -46 c24 -65 16 -70 -93
-58 -49 6 -181 16 -294 22 -113 6 -235 12 -272 15 -38 2 -68 0 -68 -5 0 -15
27 -18 295 -40 334 -27 355 -30 355 -46 0 -18 -37 -40 -80 -48 -19 -3 -64 -24
-100 -46 -63 -39 -98 -51 -84 -29 3 6 26 19 50 29 24 11 44 23 44 28 0 4 -30
9 -67 9 -58 1 -78 -4 -136 -34 -38 -19 -76 -32 -85 -30 -11 2 -1 11 29 25 72
32 82 68 13 43 -29 -10 -41 -11 -59 -1 -19 10 -34 6 -111 -33 -49 -24 -105
-48 -124 -51 l-35 -7 23 20 c12 11 44 27 70 37 26 9 53 23 61 30 28 26 -17 29
-60 4 -38 -21 -41 -21 -59 -5 -18 16 -22 16 -62 1 -34 -14 -46 -15 -64 -5 -17
9 -30 9 -56 0 -27 -10 -35 -9 -44 4 -13 17 -41 19 -79 5 -15 -6 -32 -7 -38 -3
-7 5 -37 9 -67 10 -30 1 -81 5 -112 8 -53 6 -88 0 -176 -33 -8 -3 -10 1 -6 11
8 23 -11 29 -57 17 -29 -8 -44 -8 -53 -1 -7 6 -27 8 -45 5 -20 -4 -31 -3 -31
5 0 12 -160 8 -180 -4 -5 -3 -10 1 -10 10 0 25 -26 28 -59 9 -28 -17 -32 -17
-43 -2 -19 23 -95 30 -131 11 -25 -12 -34 -13 -54 -2 -23 13 -27 12 -104 -29
-3 -1 -4 11 -1 28 6 42 -10 39 -97 -20 -63 -43 -111 -62 -111 -45 0 2 20 16
44 30 54 32 73 52 59 66 -6 6 -24 -1 -51 -21 -50 -36 -80 -41 -37 -6 24 20 28
27 17 37 -9 10 -19 11 -42 2 -23 -9 -32 -8 -37 1 -5 7 -29 15 -55 18 -60 7
-101 -12 -199 -90 -81 -64 -159 -109 -159 -92 0 20 58 71 129 113 41 23 76 48
79 55 7 22 -38 13 -81 -16 -59 -40 -67 -44 -67 -35 0 4 18 20 40 36 26 18 40
36 42 55 3 23 16 34 98 75 l95 48 180 -11 c99 -6 365 -24 590 -41 761 -54
1035 -72 1042 -65 23 23 -40 28 -1037 96 -655 45 -1164 91 -1182 108 -10 11
-28 305 -35 579 l-6 253 48 21 c36 16 89 24 223 35 97 8 181 19 186 24 13 13
-7 28 -138 96 -59 31 -136 75 -170 98 -84 58 -257 136 -325 146 -31 5 -177 14
-326 20 -558 22 -1039 40 -1330 50 -165 6 -424 15 -575 20 -251 9 -833 11
-990 3z m1075 -38 c316 -6 505 -13 1295 -45 610 -25 778 -36 860 -54 82 -18
123 -34 116 -45 -3 -4 -175 -11 -383 -15 -208 -3 -433 -9 -501 -12 l-122 -7 2
23 c3 21 -3 24 -67 36 -75 15 -330 27 -895 44 -357 11 -982 34 -1247 47 -79 3
-143 10 -143 15 0 4 1 9 3 9 7 5 589 15 677 12 58 -1 240 -5 405 -8z m-1145
-55 c401 -12 1091 -36 1400 -50 118 -5 231 -10 250 -11 l35 -1 -41 -8 c-22 -5
-414 -13 -870 -19 -823 -11 -974 -16 -974 -30 0 -9 97 -21 163 -21 66 0 30
-19 -43 -22 -70 -3 -85 -19 -40 -41 18 -9 25 -21 26 -42 1 -27 5 -1308 4
-1377 0 -16 -4 -28 -9 -28 -13 0 -20 167 -32 795 -9 536 -12 591 -27 605 -10
8 -28 31 -40 51 -26 43 -60 58 -122 55 l-45 -2 -5 -44 c-3 -31 -10 -45 -20
-45 -11 0 -15 12 -15 50 0 40 -3 50 -19 53 -17 4 -18 -2 -15 -68 3 -60 1 -74
-13 -83 -26 -17 -33 -2 -33 66 0 48 -3 62 -15 62 -12 0 -16 -18 -20 -85 -4
-69 -6 -78 -12 -51 -5 18 -8 52 -8 75 0 52 -12 72 -36 61 -11 -4 -29 -7 -42
-6 l-22 2 2 -148 c2 -81 -1 -154 -6 -161 -20 -32 -30 13 -34 153 -4 118 -7
145 -19 145 -12 0 -14 -30 -11 -200 3 -178 1 -201 -14 -216 -10 -10 -20 -16
-22 -13 -2 2 -9 96 -14 208 -6 121 -14 207 -21 214 -26 26 -29 -12 -16 -168
17 -197 19 -381 4 -391 -6 -3 -15 -2 -20 3 -5 5 -13 129 -17 276 -5 147 -11
269 -14 272 -3 3 -23 2 -44 -3 l-39 -8 3 -274 c2 -151 7 -367 12 -479 7 -197
2 -261 -21 -261 -5 0 -10 1 -11 3 -1 1 -4 225 -7 497 -6 486 -6 495 -26 495
-15 0 -19 -6 -17 -25 1 -14 4 -218 7 -455 2 -236 7 -469 10 -516 4 -69 2 -89
-10 -99 -18 -15 -18 -21 -15 125 1 65 -6 305 -16 532 -16 360 -20 413 -34 411
-8 -2 -16 -13 -18 -26 -3 -18 -8 -21 -29 -16 l-25 7 7 -74 c8 -92 33 -971 28
-982 -14 -25 -23 17 -23 101 0 54 -10 194 -21 312 -13 123 -22 294 -23 400 -1
157 -3 185 -16 185 -13 0 -15 -29 -13 -210 0 -115 8 -302 17 -415 25 -316 21
-419 -15 -383 -5 5 -14 171 -20 369 -15 493 -19 558 -41 562 -16 3 -18 -5 -18
-60 0 -35 7 -117 15 -183 8 -65 15 -189 15 -275 0 -85 6 -211 12 -280 14 -147
17 -450 4 -467 -5 -9 -14 -10 -26 -3 -16 8 -18 42 -23 397 -11 647 -18 823
-33 823 -23 0 -25 18 -9 82 32 124 93 206 187 254 78 40 254 80 448 103 289
34 250 33 670 21z m1797 -76 c-3 -3 -12 -4 -19 -1 -8 3 -5 6 6 6 11 1 17 -2
13 -5z m228 -44 c-3 -5 -34 -9 -68 -9 -57 2 -59 2 -22 9 62 11 97 11 90 0z
m312 4 c-3 -3 -12 -4 -19 -1 -8 3 -5 6 6 6 11 1 17 -2 13 -5z m-1032 -14 c4
-6 -35 -9 -112 -8 l-118 2 85 6 c47 3 97 7 112 8 15 1 30 -2 33 -8z m255 4
c-82 -8 -200 -8 -200 -1 0 4 53 6 118 5 64 -1 101 -3 82 -4z m233 -1 c-18 -2
-48 -2 -65 0 -18 2 -4 4 32 4 36 0 50 -2 33 -4z m-1068 -13 c4 -6 -34 -9 -107
-8 -96 1 -104 2 -53 8 97 11 153 11 160 0z m282 3 c-20 -2 -52 -2 -70 0 -17 2
0 4 38 4 39 0 53 -2 32 -4z m-634 -10 c-7 -2 -21 -2 -30 0 -10 3 -4 5 12 5 17
0 24 -2 18 -5z m2588 -3 c10 -6 19 -17 19 -25 0 -21 19 -28 36 -14 12 10 16 9
21 -9 3 -13 13 -22 24 -22 10 0 23 -9 29 -20 16 -31 30 -14 30 36 0 24 5 44
10 44 6 0 10 -29 10 -66 0 -48 3 -65 13 -61 7 2 13 25 13 58 3 79 3 79 19 79
12 0 15 -16 15 -87 0 -78 2 -86 15 -72 13 12 13 24 4 73 -8 43 -7 61 1 72 23
27 30 2 30 -101 0 -98 -1 -103 -22 -108 -13 -3 -98 -11 -190 -17 -151 -10
-169 -10 -200 6 -27 13 -147 86 -336 201 -13 8 -21 18 -17 21 4 4 88 9 188 13
100 3 201 6 225 7 24 1 52 -3 63 -8z m581 -92 c5 -72 -3 -111 -17 -96 -15 15
-26 96 -19 146 9 78 30 49 36 -50z m-193 2 c0 -54 -3 -90 -9 -90 -6 0 -10 28
-10 63 0 76 -14 106 -23 50 -4 -21 -7 -58 -7 -82 0 -62 -9 -46 -21 35 -13 94
-7 114 35 114 l33 0 2 -90z m63 54 c10 -33 1 -134 -11 -134 -12 0 -21 53 -21
117 0 60 17 69 32 17z m52 14 c3 -13 8 -53 11 -89 5 -50 3 -68 -8 -77 -12 -10
-15 -2 -21 49 -9 88 -8 139 4 139 5 0 12 -10 14 -22z m-1340 -685 c7 -648 3
-794 -17 -728 -4 11 -6 63 -5 115 1 102 -17 853 -28 1111 -7 168 -3 199 25
199 17 0 18 -37 25 -697z m191 4 c4 -421 2 -667 -4 -667 -15 0 -24 101 -19
198 3 48 2 128 -3 177 -5 50 -13 280 -18 513 -10 435 -7 492 25 461 12 -13 15
-112 19 -682z m-795 637 c0 -23 -12 -44 -26 -44 -15 0 -21 70 -7 84 9 8 33
-22 33 -40z m110 -5 c0 -9 -7 -22 -15 -29 -13 -11 -15 -6 -15 36 1 45 2 48 15
30 8 -11 15 -27 15 -37z m60 5 c0 -38 -3 -45 -17 -42 -32 6 -30 88 2 88 11 0
15 -11 15 -46z m187 5 c-6 -46 -11 -54 -26 -44 -12 7 -15 68 -4 78 3 4 13 7
21 7 11 0 13 -9 9 -41z m61 -2 c2 -28 -1 -37 -12 -37 -12 0 -16 11 -16 41 0
52 24 48 28 -4z m-2184 17 c25 -25 30 -61 12 -89 -15 -23 -21 -25 -64 -20 -41
6 -55 2 -114 -30 -38 -19 -68 -33 -68 -29 0 11 44 44 92 69 33 17 54 37 68 64
17 35 31 48 52 50 4 1 14 -6 22 -15z m1036 -38 c0 -23 -27 -49 -44 -43 -19 7
-21 48 -5 80 l12 21 18 -23 c11 -13 19 -29 19 -35z m238 31 c9 -48 -26 -92
-42 -51 -8 21 -8 59 1 68 12 12 38 1 41 -17z m60 -27 c-5 -49 -28 -51 -28 -2
0 21 3 42 7 45 13 13 24 -11 21 -43z m62 5 c0 -39 -16 -55 -25 -24 -9 26 2 72
15 64 6 -3 10 -21 10 -40z m106 21 c8 -35 1 -60 -19 -64 -14 -3 -17 4 -17 36
0 55 24 74 36 28z m62 -10 c2 -15 1 -35 -3 -44 -9 -25 -25 4 -25 46 0 41 23
39 28 -2z m68 9 c8 -32 -1 -55 -21 -55 -11 0 -15 11 -15 40 0 46 25 57 36 15z
m59 15 c10 -17 -5 -70 -21 -70 -9 0 -14 11 -14 33 0 43 19 63 35 37z m318 -10
c6 -23 -2 -60 -13 -60 -17 0 -32 31 -26 55 8 30 32 33 39 5z m267 10 c0 -5 -4
-10 -10 -10 -5 0 -10 5 -10 10 0 6 5 10 10 10 6 0 10 -4 10 -10z m348 -148
c-3 -83 -6 -97 -20 -100 -16 -3 -18 7 -18 105 0 59 3 119 7 133 7 25 7 25 20
-8 9 -22 13 -66 11 -130z m-2206 123 c9 -19 8 -29 -6 -50 -22 -33 -36 -24 -36
24 0 56 22 70 42 26z m178 -26 c0 -9 -7 -22 -16 -30 -13 -10 -17 -10 -25 2
-13 20 -11 53 3 67 10 10 15 9 25 -5 7 -9 13 -24 13 -34z m50 0 c0 -28 -4 -39
-12 -37 -14 5 -23 51 -14 74 10 27 26 4 26 -37z m80 7 c0 -31 -16 -50 -34 -43
-18 7 -21 39 -5 68 8 16 13 18 25 8 8 -6 14 -21 14 -33z m168 -11 c-4 -27 -35
-31 -43 -6 -3 11 -1 30 6 42 11 22 12 22 26 3 7 -10 12 -28 11 -39z m57 25 c7
-33 1 -50 -21 -50 -9 0 -14 11 -14 33 0 54 24 66 35 17z m135 -16 c0 -24 -5
-34 -15 -34 -10 0 -15 10 -15 33 0 19 3 37 6 40 13 13 24 -5 24 -39z m118 3
c3 -39 -11 -49 -27 -19 -12 23 -3 64 13 59 6 -2 12 -20 14 -40z m2641 -25 c0
-41 -3 -51 -9 -37 -12 29 -12 108 0 100 6 -3 10 -32 9 -63z m-4179 51 c12
-172 11 -179 -4 -192 -14 -12 -16 -3 -16 93 0 64 4 106 10 106 6 0 10 -3 10
-7z m564 -85 c10 -169 17 -1001 10 -1181 -6 -157 -9 -177 -24 -177 -16 0 -18
30 -24 353 -9 534 -11 1071 -2 1085 4 7 13 12 21 12 10 0 15 -24 19 -92z m121
-221 c1 -160 5 -421 10 -578 5 -191 4 -288 -2 -292 -7 -5 -13 123 -17 381 -4
213 -11 450 -17 527 -16 242 -14 294 14 266 7 -7 12 -108 12 -304z m795 278
c0 -27 -15 -41 -25 -25 -10 16 4 62 15 55 6 -3 10 -17 10 -30z m-320 -5 c0
-16 -4 -30 -10 -30 -5 0 -10 14 -10 30 0 17 5 30 10 30 6 0 10 -13 10 -30z
m-550 -10 c0 -16 -4 -30 -10 -30 -5 0 -10 14 -10 30 0 17 5 30 10 30 6 0 10
-13 10 -30z m200 -1 c0 -10 -4 -19 -10 -19 -5 0 -10 12 -10 26 0 14 4 23 10
19 6 -3 10 -15 10 -26z m2204 0 c12 -61 7 -176 -8 -188 -13 -11 -15 4 -13 103
2 116 9 144 21 85z m-2154 -4 c0 -14 -4 -25 -10 -25 -5 0 -10 11 -10 25 0 14
5 25 10 25 6 0 10 -11 10 -25z m-1145 -104 c3 -36 7 -109 10 -161 3 -52 8
-115 11 -140 3 -25 1 -66 -6 -90 -7 -25 -12 -83 -11 -130 1 -47 -3 -92 -9
-100 -8 -12 -10 -10 -10 10 0 14 -5 144 -11 290 -12 264 -5 478 12 416 4 -16
11 -59 14 -95z m3372 55 c6 -53 -4 -119 -18 -111 -5 4 -9 45 -9 93 0 63 3 83
11 75 6 -6 14 -32 16 -57z m1153 28 c0 -21 -4 -33 -10 -29 -5 3 -10 19 -10 36
0 16 5 29 10 29 6 0 10 -16 10 -36z m-1480 -39 c0 -19 -4 -37 -10 -40 -6 -4
-10 12 -10 40 0 28 4 44 10 40 6 -3 10 -21 10 -40z m1590 20 c0 -8 -4 -15 -10
-15 -5 0 -10 7 -10 15 0 8 5 15 10 15 6 0 10 -7 10 -15z m-3936 -640 c3 -253
9 -517 12 -587 4 -88 3 -128 -4 -128 -29 0 -35 92 -39 560 -2 261 -5 509 -5
550 -1 41 3 116 7 165 l9 90 7 -95 c3 -53 9 -302 13 -555z m2738 569 c2 -29
-1 -48 -9 -51 -17 -6 -25 31 -17 83 8 57 23 40 26 -32z m-1258 50 c14 -13 16
-61 16 -370 l0 -355 -26 -24 c-15 -14 -35 -25 -44 -25 -15 0 -17 30 -16 390 1
381 1 389 21 393 11 2 23 5 27 6 4 0 14 -6 22 -15z m100 1 c21 -21 25 -77 30
-424 l5 -304 -29 -28 c-61 -62 -60 -70 -60 365 0 394 1 402 32 405 4 1 13 -6
22 -14z m147 -347 c8 -200 14 -451 14 -558 l0 -195 -32 -3 c-23 -2 -34 2 -40
15 -12 23 -9 66 4 70 44 15 53 53 12 53 -25 0 -25 22 1 38 30 18 26 44 -5 36
-29 -7 -32 4 -9 47 14 28 14 32 -2 43 -15 11 -18 48 -25 317 -5 167 -13 343
-19 391 -7 48 -9 92 -5 98 3 5 25 10 49 10 l43 0 14 -362z m464 270 c10 -145
23 -1002 15 -1011 -9 -10 -396 -14 -406 -5 -11 12 -22 180 -33 527 -6 174 -14
373 -17 443 -6 118 -5 126 12 131 11 3 110 5 221 6 l201 1 7 -92z m-1454 66
c10 -13 15 -69 18 -231 3 -212 3 -215 -20 -239 -12 -13 -30 -24 -38 -24 -12 0
-9 5 8 19 l24 18 -29 10 -28 9 3 185 c2 183 6 218 23 252 11 21 22 22 39 1z
m100 -49 c4 -33 7 -124 8 -202 1 -130 -1 -145 -19 -163 -30 -30 -37 -25 -44
33 -10 93 -6 370 6 384 24 30 43 10 49 -52z m95 57 c7 -4 15 -90 21 -227 10
-239 9 -247 -43 -281 -17 -12 -28 -14 -35 -7 -15 15 -7 459 9 496 11 27 27 33
48 19z m118 2 c14 -5 16 -39 16 -276 0 -227 -2 -274 -16 -300 -15 -28 -15 -32
0 -40 21 -12 21 -67 0 -96 -8 -12 -26 -22 -40 -22 -28 0 -31 20 -12 82 9 29 9
41 0 50 -17 17 -15 93 3 127 12 24 12 31 1 40 -15 13 -29 286 -19 381 5 54 8
60 29 60 12 0 29 -3 38 -6z m115 -13 c7 -12 8 -126 3 -322 l-7 -303 -32 -19
-33 -19 0 334 c0 184 3 338 7 341 13 14 53 6 62 -12z m102 -136 c4 -82 7 -246
8 -363 l1 -213 -26 -24 c-57 -53 -56 -59 -53 348 1 204 6 380 11 390 6 11 18
17 31 15 21 -3 22 -9 28 -153z m105 138 c5 -10 9 -156 10 -325 l2 -307 -24
-26 c-45 -49 -50 -37 -57 118 -9 185 -9 542 0 550 13 14 61 7 69 -10z m-1040
-429 c6 -236 15 -521 19 -634 7 -197 7 -206 -13 -230 -11 -14 -24 -21 -28 -17
-5 4 -6 60 -4 125 7 171 5 723 -3 975 -6 176 -5 218 5 215 10 -4 16 -101 24
-434z m98 404 c5 -32 14 -340 20 -703 1 -99 -1 -195 -6 -214 -7 -22 -6 -37 1
-44 6 -6 11 -21 11 -34 0 -30 15 -29 52 2 35 30 52 24 43 -16 -8 -35 -3 -36
41 -8 18 11 42 19 53 17 13 -2 27 8 43 32 13 19 31 36 41 38 28 6 20 -29 -15
-66 l-33 -35 30 7 c17 4 54 26 83 48 39 31 56 38 64 30 9 -9 8 -18 0 -37 -26
-56 -8 -60 47 -10 46 42 51 43 51 11 0 -37 17 -40 51 -12 36 30 59 33 59 8 0
-31 11 -33 48 -10 34 21 35 21 48 3 8 -10 14 -22 14 -27 0 -16 23 -7 57 22 36
32 53 32 53 -1 0 -26 19 -24 60 6 36 27 49 21 30 -14 -17 -33 12 -26 60 14 45
38 60 38 60 -1 0 -32 14 -30 60 6 58 46 76 41 39 -12 l-22 -30 22 7 c15 4 23
2 27 -9 15 -39 -4 -42 -308 -45 -161 -1 -418 -6 -571 -11 -153 -5 -293 -6
-312 -3 -30 5 -33 8 -38 52 -19 150 -40 1040 -25 1059 6 6 21 12 33 12 18 0
24 -7 29 -32z m107 10 c7 -13 10 -49 6 -97 -3 -42 -1 -130 4 -196 8 -109 7
-122 -10 -145 -10 -14 -27 -26 -38 -28 -16 -2 -22 4 -26 30 -5 29 -12 412 -8
446 2 21 59 14 72 -10z m112 -22 c4 -25 4 -111 0 -192 -6 -133 -8 -149 -29
-173 -12 -14 -26 -23 -30 -18 -4 4 -12 91 -17 193 -11 210 -7 234 41 234 27 0
30 -4 35 -44z m-789 -103 c8 -129 7 -1078 -1 -1145 -3 -28 -11 -48 -18 -48
-19 0 -25 152 -25 675 0 501 5 625 25 625 8 0 14 -33 19 -107z m71 0 c17 -893
17 -1193 3 -1193 -9 0 -20 6 -26 13 -7 8 -11 200 -11 572 -1 308 -4 588 -8
622 -4 44 -2 67 7 78 23 28 34 -1 35 -92z m-155 -326 c0 -228 3 -516 7 -640 6
-219 6 -227 -13 -227 -19 0 -19 16 -18 613 1 692 1 667 14 667 7 0 10 -144 10
-413z m430 411 c5 -32 15 -607 15 -880 0 -280 -3 -370 -12 -380 -8 -7 -16 -8
-21 -3 -11 14 -2 1265 9 1265 5 0 9 -1 9 -2z m3293 -255 c9 -283 9 -503 1
-503 -3 0 -52 11 -108 24 -175 42 -222 49 -318 44 -78 -4 -108 -11 -185 -42
-96 -39 -197 -96 -272 -153 -24 -18 -49 -33 -56 -33 -8 0 -14 38 -18 128 -10
179 -9 670 1 676 20 12 240 37 462 51 135 9 277 20 315 24 39 5 93 9 121 10
l51 1 6 -227z m84 195 c-3 -7 -5 -2 -5 12 0 14 2 19 5 13 2 -7 2 -19 0 -25z
m-3963 10 c-5 -7 -32 -48 -61 -91 -29 -43 -53 -83 -53 -88 0 -6 -16 -38 -36
-70 -33 -52 -36 -64 -30 -104 5 -43 4 -47 -24 -63 -33 -19 -33 -20 -55 -157
-18 -117 -30 -157 -59 -205 -11 -19 -21 -39 -22 -45 0 -5 -2 -18 -2 -27 -3
-33 -114 -140 -129 -125 -3 4 8 19 24 36 38 37 95 148 121 231 30 99 55 258
47 307 -6 41 -5 44 25 61 23 12 44 41 77 107 25 50 59 110 76 135 37 54 128
143 101 98z m90 -49 c3 -34 6 -314 6 -621 0 -527 -1 -559 -17 -556 -17 3 -18
41 -21 606 -2 332 -1 610 2 618 12 30 23 11 30 -47z m2646 -549 c5 -294 7
-536 4 -539 -17 -18 -24 52 -24 264 0 132 -2 386 -5 565 -3 222 -1 312 5 285
6 -22 14 -281 20 -575z m1185 423 c5 -116 4 -163 -4 -163 -7 0 -11 44 -11 138
0 75 -3 155 -6 177 -4 27 -2 35 4 25 5 -8 13 -88 17 -177z m-3898 -476 c-2
-575 -2 -582 -22 -582 -20 0 -20 9 -28 400 -4 220 -6 475 -5 566 3 147 5 169
22 188 10 11 22 18 27 15 5 -2 7 -267 6 -587z m3953 531 c0 -62 -5 -60 -14 5
-5 31 -4 47 3 47 7 0 11 -22 11 -52z m-4472 -393 c5 -181 6 -337 3 -345 -12
-31 -19 49 -20 225 0 99 -6 234 -13 300 -7 74 -8 143 -3 180 l9 60 8 -45 c4
-25 12 -193 16 -375z m438 -220 c5 -442 3 -505 -10 -505 -19 0 -23 38 -36 335
-16 354 -13 627 6 673 13 32 16 35 25 19 7 -11 12 -209 15 -522z m4051 167 c9
-271 11 -262 -57 -262 -44 0 -90 22 -125 60 l-30 32 35 -5 c114 -17 116 -18
128 -50 6 -17 14 -28 18 -24 3 3 6 133 6 289 0 343 14 320 25 -40z m-2977 214
c0 -22 -42 -48 -55 -35 -7 7 -3 16 14 30 28 23 41 24 41 5z m187 -23 c-8 -9
-21 -13 -27 -11 -9 3 -8 9 4 21 10 9 22 14 28 11 6 -4 4 -12 -5 -21z m-277
-37 c0 -18 -49 -58 -61 -50 -14 8 -11 25 8 46 19 21 53 24 53 4z m410 -1 c17
-21 14 -87 -5 -126 -16 -29 -16 -33 -1 -41 41 -23 -3 -118 -55 -118 -21 0 -21
3 -15 68 4 37 14 77 22 90 13 20 13 22 -6 22 -30 0 -27 51 6 89 29 35 36 37
54 16z m-210 -15 c0 -16 -43 -50 -65 -50 -13 0 -3 32 15 50 26 26 50 26 50 0z
m-110 -5 c0 -14 -29 -35 -49 -35 -17 0 -13 28 7 39 25 15 42 13 42 -4z m200 3
c0 -14 -30 -48 -42 -48 -15 0 -8 39 10 49 23 14 32 13 32 -1z m2707 -25 c-3
-10 -5 -4 -5 12 0 17 2 24 5 18 2 -7 2 -21 0 -30z m-4062 -153 c10 -219 12
-607 3 -616 -5 -4 -10 -5 -13 -2 -17 16 -35 754 -20 779 16 25 24 -14 30 -161z
m1061 103 c-4 -11 -18 -25 -32 -31 -39 -18 -46 14 -9 45 30 27 51 19 41 -14z
m94 5 c0 -16 -31 -48 -47 -48 -18 0 -16 20 4 42 18 20 43 24 43 6z m108 -4
c-4 -22 -53 -58 -67 -50 -15 10 -2 35 28 51 34 19 43 18 39 -1z m100 -11 c4
-27 -30 -68 -51 -60 -23 9 -21 39 4 66 24 25 43 23 47 -6z m-298 -60 c0 -23
-29 -53 -52 -53 -26 0 -23 35 4 54 29 21 48 20 48 -1z m620 -5 c0 -19 -32 -48
-52 -48 -26 0 -22 25 8 49 26 21 44 20 44 -1z m-530 -6 c0 -21 -18 -42 -37
-42 -16 0 -17 32 -1 48 18 18 38 15 38 -6z m117 2 c6 -17 -37 -64 -58 -64 -30
0 -34 28 -8 56 23 25 59 29 66 8z m631 -43 c5 -50 -5 -79 -33 -97 -35 -23 -44
-10 -15 21 13 14 19 26 14 26 -5 1 -16 2 -24 3 -21 2 -24 33 -5 62 24 37 59
29 63 -15z m-1972 -68 c5 -54 9 -197 9 -318 0 -196 -2 -220 -17 -223 -31 -6
-38 230 -19 626 1 6 5 12 10 12 5 0 13 -44 17 -97z m1432 81 c-2 -9 -13 -23
-25 -31 -20 -14 -23 -14 -29 1 -8 21 13 46 38 46 13 0 18 -6 16 -16z m1562 -4
c0 -5 -2 -10 -4 -10 -3 0 -8 5 -11 10 -3 6 -1 10 4 10 6 0 11 -4 11 -10z
m-1856 -29 c8 -12 -32 -61 -50 -61 -19 0 -18 29 3 52 17 19 38 24 47 9z m511
-1 c7 -12 -30 -50 -50 -50 -22 0 -18 27 7 44 26 18 35 20 43 6z m-417 -20 c3
-16 -32 -60 -47 -60 -18 0 -21 34 -6 57 17 26 48 27 53 3z m519 4 c6 -17 -33
-64 -54 -64 -18 0 -16 40 4 62 20 22 42 23 50 2z m-417 -11 c0 -23 -29 -53
-52 -53 -26 0 -23 35 4 54 29 21 48 20 48 -1z m108 -14 c4 -31 -32 -79 -59
-79 -27 0 -25 49 2 84 26 33 53 30 57 -5z m422 13 c0 -29 -29 -62 -56 -62 -32
0 -31 24 2 55 32 29 54 32 54 7z m211 -26 c-7 -13 -24 -29 -37 -35 -20 -9 -26
-8 -31 6 -8 22 54 80 70 64 7 -7 7 -18 -2 -35z m127 -3 c2 -24 -4 -36 -34 -62
-20 -18 -39 -29 -43 -26 -3 4 4 15 17 25 27 22 28 30 3 30 -33 0 -33 17 0 45
38 31 53 28 57 -12z m1517 27 c4 -6 -11 -10 -37 -9 -36 1 -39 2 -18 9 36 11
48 11 55 0z m-135 -24 c-58 -21 -92 -28 -85 -17 7 13 61 29 95 29 21 1 20 -1
-10 -12z m-2035 -16 c8 -13 -39 -60 -60 -60 -24 0 -18 26 11 49 30 23 40 26
49 11z m-410 -9 c14 -24 -42 -90 -65 -76 -16 10 -12 30 11 59 21 26 43 34 54
17z m515 -13 c0 -29 -28 -58 -57 -58 -29 0 -30 19 -2 54 25 32 59 35 59 4z
m2219 7 c6 -7 -23 -11 -87 -12 -231 -5 -464 -108 -588 -261 -48 -59 -57 -88
-24 -79 28 7 25 -11 -5 -35 -14 -11 -23 -24 -20 -29 4 -5 -1 -9 -10 -9 -21 0
-37 45 -29 85 8 45 84 137 156 191 144 106 327 165 495 161 56 -1 106 -6 112
-12z m-2644 -15 c9 -14 -22 -60 -40 -60 -24 0 -26 17 -4 44 22 28 34 32 44 16z
m113 -13 c6 -28 -25 -67 -53 -67 -32 0 -34 34 -3 67 25 27 51 27 56 0z m412 6
c0 -23 -29 -53 -52 -53 -24 0 -23 25 2 50 24 24 50 26 50 3z m108 -10 c-4 -21
-54 -51 -65 -39 -8 8 41 56 58 56 6 0 9 -8 7 -17z m107 7 c7 -11 -38 -60 -54
-60 -24 0 -22 25 3 47 30 25 42 28 51 13z m115 0 c0 -15 -38 -50 -55 -50 -23
0 -18 16 11 39 29 23 44 27 44 11z m5334 -32 c10 -29 3 -65 -18 -93 -14 -17
-17 -18 -26 -5 -21 32 -2 136 24 127 6 -2 15 -15 20 -29z m-5987 -32 c-16 -24
-44 -33 -59 -18 -7 7 -2 19 16 37 22 22 30 25 42 14 12 -10 13 -15 1 -33z
m-1491 -181 c1 -197 -6 -263 -22 -200 -4 16 -7 40 -7 54 1 14 2 98 2 185 1 88
4 163 7 168 15 24 19 -19 20 -207z m1612 194 c4 -22 -36 -69 -59 -69 -29 0
-25 44 8 70 29 22 46 22 51 -1z m652 2 c0 -18 -52 -71 -70 -71 -15 0 -21 19
-12 36 9 16 61 54 75 54 4 0 7 -9 7 -19z m1670 9 c11 -7 4 -10 -25 -10 -29 0
-36 3 -25 10 8 5 20 10 25 10 6 0 17 -5 25 -10z m-225 -8 c-6 -5 -39 -19 -75
-32 -107 -38 -214 -96 -279 -150 -34 -28 -61 -49 -61 -46 0 31 100 116 190
161 98 50 260 98 225 67z m-2513 -27 c-5 -25 -31 -55 -49 -55 -18 0 -17 31 3
58 19 28 51 25 46 -3z m513 14 c8 -12 -33 -59 -52 -59 -21 0 -15 37 9 54 26
19 35 20 43 5z m-415 -22 c0 -29 -19 -55 -45 -59 -28 -4 -31 29 -4 58 28 30
49 31 49 1z m630 6 c0 -23 -39 -63 -62 -63 -27 0 -22 25 13 54 36 30 49 33 49
9z m110 2 c0 -18 -43 -65 -60 -65 -20 0 -10 39 16 59 32 25 44 26 44 6z m105
6 c9 -15 -47 -54 -59 -41 -8 8 -4 17 13 31 26 21 37 24 46 10z m916 -54 c-8
-8 -11 0 -10 29 1 39 1 39 11 11 7 -21 7 -32 -1 -40z m-1241 43 c0 -13 -41
-50 -57 -50 -21 0 -15 27 9 44 25 18 48 21 48 6z m2000 -32 c-19 -5 -69 -25
-110 -44 -74 -33 -140 -52 -140 -41 0 19 211 96 260 95 20 0 18 -2 -10 -10z
m-5170 -18 c-55 -13 -344 -29 -710 -40 -458 -14 -480 -16 -480 -49 0 -9 24
-82 54 -162 65 -172 240 -728 233 -736 -3 -3 -10 -2 -16 1 -10 7 -311 904
-311 929 0 19 34 22 470 42 179 8 348 17 375 18 114 7 418 5 385 -3z m4920
-21 c-38 -26 -90 -48 -90 -39 0 14 61 50 85 50 17 0 18 -2 5 -11z m-3613 -191
c-2 -143 -9 -165 -44 -136 -13 10 -15 35 -11 143 3 71 11 144 18 160 l12 30
14 -30 c9 -21 12 -72 11 -167z m3843 184 c0 -10 -160 -75 -167 -68 -8 8 82 50
165 75 1 1 2 -3 2 -7z m-570 -18 c-8 -8 -22 -20 -32 -25 -14 -7 -18 -6 -18 6
0 9 10 20 23 25 33 13 41 12 27 -6z m995 -62 c-82 -43 -168 -90 -190 -105 -37
-25 -101 -38 -93 -18 4 10 283 157 348 182 106 42 74 13 -65 -59z m385 73 c0
-2 -28 -20 -62 -41 -35 -20 -92 -58 -128 -84 -68 -49 -140 -90 -162 -90 -28 0
204 153 297 196 58 26 55 25 55 19z m-4879 -47 c35 -39 37 -62 5 -83 -22 -15
-27 -15 -54 -1 -46 24 -55 63 -22 96 27 27 36 25 71 -12z m4729 18 c0 -11
-335 -226 -352 -226 -10 0 -16 4 -13 10 11 18 221 153 290 186 73 36 75 37 75
30z m-640 -11 c0 -10 -62 -36 -78 -32 -12 3 -7 9 18 20 35 16 60 21 60 12z
m3700 -13 c0 -29 -35 -54 -84 -59 -38 -5 -46 -2 -56 17 -18 34 -6 48 47 53 26
2 58 4 71 5 15 1 22 -3 22 -16z m-7646 -34 c8 -30 8 -157 0 -197 -4 -17 -13
-31 -20 -31 -11 0 -14 23 -14 109 0 108 5 141 20 141 4 0 10 -10 14 -22z
m4106 18 c0 -3 -12 -11 -27 -18 -16 -8 -65 -36 -110 -62 -50 -29 -90 -46 -105
-44 -19 2 -14 8 36 37 85 49 206 100 206 87z m-465 -22 c12 -13 14 -27 8 -67
-4 -29 -7 -60 -7 -69 0 -12 -8 -18 -23 -18 -52 0 -77 116 -33 152 27 22 34 22
55 2z m561 7 c-7 -11 -149 -81 -165 -81 -26 0 5 24 73 56 71 33 102 42 92 25z
m-6408 -40 c22 -17 54 -49 70 -73 27 -39 112 -209 112 -224 0 -3 12 -35 26
-71 32 -80 26 -112 -36 -187 -50 -60 -54 -39 -10 57 34 75 38 107 14 107 -14
0 -15 7 -10 40 3 22 3 40 -1 40 -5 0 -21 -28 -38 -62 -53 -109 -78 -73 -30 42
26 63 31 90 15 90 -5 0 -14 -17 -20 -39 -12 -46 -40 -76 -40 -43 0 11 7 36 15
55 17 41 20 81 5 72 -5 -3 -15 -24 -21 -46 -14 -44 -39 -73 -39 -44 0 9 9 48
21 86 23 76 21 115 -4 58 -8 -20 -21 -40 -28 -44 -12 -8 -11 4 7 103 8 42 -13
43 -28 2 -11 -33 -34 -36 -31 -4 1 10 4 30 5 44 2 19 -1 24 -14 22 -13 -2 -18
4 -18 23 0 34 26 33 78 -4z m6007 10 c-3 -6 -14 -11 -23 -11 -15 1 -15 2 2 15
21 16 32 13 21 -4z m102 -6 c-28 -25 -67 -34 -67 -16 0 16 43 41 70 41 l25 -1
-28 -24z m-1507 -59 c5 -69 -1 -86 -32 -86 -15 0 -18 9 -18 54 0 118 42 144
50 32z m130 54 c8 -15 8 -37 0 -77 -5 -31 -10 -59 -10 -61 0 -2 -7 1 -15 8
-15 13 -22 129 -8 143 11 12 22 8 33 -13z m180 -61 c0 -62 -10 -78 -31 -53
-13 16 -15 78 -4 115 5 16 10 18 21 8 9 -7 14 -32 14 -70z m250 12 c0 -62 -15
-86 -29 -48 -12 32 -14 61 -5 95 11 39 34 6 34 -47z m55 11 l-7 -27 -9 24 c-5
13 -7 33 -3 44 6 19 7 19 16 3 5 -10 7 -29 3 -44z m199 36 c8 -30 8 -72 0 -93
-11 -29 -24 4 -24 63 0 53 13 70 24 30z m536 -4 c14 -37 -7 -79 -40 -79 -21 0
-26 5 -28 32 -6 65 47 102 68 47z m-1743 -61 c-2 -35 -7 -67 -10 -70 -15 -14
-27 14 -27 62 0 66 7 86 27 78 13 -5 15 -18 10 -70z m58 -4 c0 -59 -3 -74 -15
-74 -11 0 -16 14 -18 54 -4 66 4 104 21 98 8 -2 12 -29 12 -78z m125 0 c0 -70
-10 -86 -31 -48 -10 19 -5 101 8 122 13 21 23 -11 23 -74z m68 4 c-5 -59 -13
-72 -31 -54 -13 13 -15 86 -3 116 5 15 9 15 22 4 12 -10 15 -26 12 -66z m72
16 c0 -35 -16 -79 -30 -79 -11 0 -14 123 -3 134 12 11 33 -25 33 -55z m131 34
c12 -33 1 -113 -16 -113 -20 0 -26 29 -19 79 10 69 18 78 35 34z m131 -47 c1
-45 -6 -66 -23 -66 -10 0 -13 99 -3 125 6 16 8 16 16 1 5 -8 9 -35 10 -60z
m173 2 c0 -29 -5 -53 -11 -55 -13 -4 -24 62 -17 101 9 44 27 13 28 -46z m129
1 c0 -31 -4 -54 -10 -56 -16 -6 -25 40 -18 87 9 56 26 37 28 -31z m-2953 -41
c3 -75 -7 -108 -29 -94 -15 9 -21 97 -10 150 15 72 36 43 39 -56z m1645 3 c-5
-35 -21 -59 -32 -49 -10 10 -9 122 1 138 14 22 38 -46 31 -89z m54 80 c11 -22
14 -90 4 -115 -14 -36 -32 -15 -36 41 -7 86 7 119 32 74z m190 -67 c0 -57 -2
-64 -19 -64 -26 0 -35 31 -26 88 9 59 13 66 31 51 9 -8 14 -33 14 -75z m2490
76 c0 -5 -5 -10 -11 -10 -5 0 -7 5 -4 10 3 6 8 10 11 10 2 0 4 -4 4 -10z
m-3062 -25 c18 -39 14 -90 -7 -116 l-19 -24 -11 28 c-12 31 -15 96 -5 121 9
24 29 19 42 -9z m62 -20 c9 -38 -4 -105 -20 -105 -11 0 -14 133 -3 143 9 10
14 3 23 -38z m60 26 c19 -36 4 -141 -19 -127 -14 9 -21 65 -15 107 7 43 18 49
34 20z m315 -67 c-5 -34 -9 -43 -16 -33 -11 17 -12 103 -2 113 15 14 25 -33
18 -80z m194 26 c-1 -19 -4 -46 -9 -60 l-7 -25 -12 28 c-10 26 -9 47 6 101 8
29 23 -1 22 -44z m55 38 c16 -62 -2 -133 -25 -97 -16 25 -7 119 11 119 4 0 10
-10 14 -22z m191 -16 c3 -21 1 -51 -6 -67 -10 -28 -12 -28 -19 -10 -16 39 -9
115 10 115 5 0 11 -17 15 -38z m696 11 c2 -34 0 -53 -7 -73 -11 -30 -25 17
-18 59 7 47 23 55 25 14z m671 5 c-6 -6 -15 -8 -19 -4 -4 4 -1 11 7 16 8 5 17
7 19 4 3 -2 -1 -10 -7 -16z m-2445 -10 c-3 -8 -6 -5 -6 6 -1 11 2 17 5 13 3
-3 4 -12 1 -19z m136 -47 c1 -59 -18 -90 -29 -47 -3 14 -3 47 1 72 9 61 27 44
28 -25z m232 -18 c-3 -18 -10 -33 -15 -33 -12 0 -14 103 -3 114 12 11 24 -46
18 -81z m338 11 c2 -44 -15 -70 -36 -57 -10 6 -3 105 9 124 11 18 25 -16 27
-67z m6004 55 c54 -26 98 -78 124 -149 17 -44 21 -83 23 -205 3 -166 0 -190
-20 -154 -8 15 -13 59 -14 116 0 156 -28 193 -141 193 -40 0 -55 -5 -84 -31
-53 -47 -59 -64 -65 -179 l-5 -105 -65 -3 c-98 -5 -127 -40 -136 -169 -8 -118
-10 -123 -43 -123 -16 0 -37 8 -47 17 -15 16 -16 36 -10 226 8 232 24 354 54
413 21 40 77 98 123 126 80 50 232 63 306 27z m-3527 -29 c-40 -35 -136 -90
-156 -90 -20 0 67 75 116 100 77 40 93 36 40 -10z m-4452 -77 l-4 -28 -8 28
c-5 15 -5 39 0 55 l8 27 4 -27 c2 -16 2 -40 0 -55z m76 61 c10 -27 7 -102 -6
-110 -16 -10 -38 24 -38 59 0 51 30 87 44 51z m3656 6 c0 -5 -5 -10 -11 -10
-5 0 -7 5 -4 10 3 6 8 10 11 10 2 0 4 -4 4 -10z m1365 -9 c-3 -6 -19 -18 -36
-26 -40 -21 -38 0 3 25 33 20 45 20 33 1z m-927 -3 c-3 -7 -18 -14 -34 -16
l-29 -2 25 14 c31 19 43 20 38 4z m593 -19 c-13 -11 -27 -17 -30 -13 -7 7 28
34 43 34 6 -1 0 -10 -13 -21z m-736 -9 c-18 -20 -55 -28 -55 -12 0 16 24 32
49 32 23 0 24 -1 6 -20z m1755 10 c0 -5 -5 -10 -11 -10 -5 0 -7 5 -4 10 3 6 8
10 11 10 2 0 4 -4 4 -10z m-1510 -7 c0 -13 -94 -72 -125 -78 -30 -7 -29 -6 17
39 35 34 55 46 77 46 17 0 31 -3 31 -7z m1085 -19 c-33 -28 -85 -57 -90 -52
-8 8 13 28 55 52 57 33 74 33 35 0z m115 11 c-7 -8 -20 -15 -29 -15 -13 1 -13
3 3 15 26 19 42 19 26 0z m-820 -5 c0 -12 -40 -33 -48 -25 -4 4 2 13 12 21 23
16 36 18 36 4z m1310 5 c0 -11 -66 -45 -85 -45 -15 1 -10 7 20 25 37 23 65 32
65 20z m-333 -30 c-25 -22 -67 -34 -67 -20 0 9 64 45 80 45 10 -1 6 -9 -13
-25z m-1097 1 c0 -19 -69 -51 -82 -38 -7 7 2 17 28 31 47 24 54 25 54 7z m590
4 c0 -12 -59 -50 -77 -50 -23 0 -13 20 20 40 35 22 57 26 57 10z m1015 -6
c-26 -20 -83 -49 -115 -59 -25 -8 -25 -7 -6 13 23 26 94 62 121 62 l20 -1 -20
-15z m-2555 -13 c43 -18 45 -21 48 -62 2 -49 -9 -76 -28 -64 -7 5 -10 20 -7
40 6 36 -7 65 -22 50 -5 -6 -11 -28 -13 -50 -2 -28 -8 -41 -20 -43 -13 -2 -17
5 -20 35 -4 49 -32 53 -36 6 -4 -40 -19 -43 -24 -6 -2 17 -10 29 -20 31 -15 3
-18 -4 -18 -32 0 -25 -4 -36 -15 -36 -11 0 -15 11 -15 40 0 28 -4 40 -14 40
-16 0 -26 -21 -26 -56 0 -39 -17 -27 -24 17 -8 50 -29 48 -36 -5 -6 -47 -24
-51 -28 -6 -5 58 -10 65 -30 47 -10 -10 -27 -14 -39 -11 -18 5 -22 1 -25 -27
-4 -39 -28 -53 -28 -16 0 13 -7 30 -15 37 -16 13 -18 11 -29 -42 -4 -16 -13
-28 -21 -28 -14 0 -20 14 -27 65 -2 11 -10 20 -18 20 -12 0 -14 -10 -12 -43 3
-38 1 -43 -14 -40 -13 2 -21 15 -25 41 -3 20 -9 40 -12 43 -14 14 -27 -10 -25
-44 4 -55 -24 -50 -35 6 -10 52 -31 51 -35 -1 -4 -44 -22 -50 -22 -7 0 23 -4
30 -20 30 -16 0 -20 -7 -20 -35 0 -26 -4 -35 -16 -35 -12 0 -15 6 -11 21 7 27
-1 49 -19 49 -9 0 -14 -12 -14 -35 0 -23 -6 -38 -15 -42 -22 -8 -28 2 -35 55
-3 33 -10 47 -20 47 -11 0 -15 -12 -15 -49 0 -67 -23 -74 -27 -9 -2 35 -7 48
-18 48 -11 0 -16 -13 -18 -48 -4 -57 -24 -59 -33 -4 -3 21 -9 40 -12 43 -13
14 -27 -10 -27 -47 0 -52 -24 -48 -28 4 -4 47 -29 50 -34 5 -4 -46 -26 -47
-30 -1 -4 52 -32 53 -36 1 -4 -47 -20 -50 -24 -5 -4 44 -31 43 -38 -2 -8 -54
-30 -51 -30 4 0 39 -3 46 -17 43 -13 -2 -19 -15 -21 -46 -4 -49 -22 -57 -22
-9 0 71 -36 75 -42 4 -4 -54 -22 -50 -26 6 -3 39 -6 48 -20 45 -12 -2 -18 -15
-20 -43 -4 -51 -19 -67 -27 -29 -11 49 -14 54 -30 54 -11 0 -15 -11 -16 -37
l-1 -38 -8 33 c-15 65 -54 68 -48 4 2 -21 -2 -37 -9 -39 -8 -3 -13 11 -15 39
-2 30 -7 43 -18 43 -10 0 -16 -13 -18 -42 -4 -60 -22 -54 -22 8 0 43 -3 50
-17 47 -14 -2 -19 -16 -23 -53 -4 -36 -9 -50 -20 -50 -10 0 -15 11 -16 35 -2
57 -3 62 -16 58 -7 -3 -15 -24 -18 -49 -4 -36 -9 -45 -27 -47 -21 -3 -23 1
-23 37 0 42 -16 63 -31 40 -5 -8 -7 -22 -5 -32 6 -25 -3 -47 -20 -47 -9 0 -14
11 -14 29 0 74 -37 86 -42 14 -2 -36 -7 -49 -20 -51 -15 -3 -18 4 -18 46 0 53
-7 67 -24 52 -7 -5 -28 -5 -51 0 -65 14 -309 7 -329 -9 -14 -12 -18 -11 -30 4
-18 25 -36 10 -36 -31 0 -40 -16 -77 -31 -69 -5 4 -9 30 -9 60 0 89 -30 82
-40 -9 -7 -66 -28 -72 -32 -9 -4 66 -29 66 -42 0 -10 -55 -29 -58 -34 -6 -2
19 -8 40 -14 47 -18 21 -39 -6 -36 -46 2 -20 -2 -37 -9 -39 -8 -3 -13 12 -15
44 -4 62 -30 68 -38 8 -10 -75 -40 -86 -40 -14 0 28 -4 39 -15 39 -10 0 -15
-10 -15 -29 0 -16 -3 -36 -6 -45 -12 -30 -24 -16 -24 28 0 41 -13 66 -27 52
-3 -3 -9 -23 -12 -43 -8 -46 -24 -46 -31 -1 -7 47 -34 44 -40 -5 -6 -48 -24
-53 -28 -7 -1 19 -5 42 -8 50 -9 25 -34 -18 -34 -58 0 -50 -24 -35 -30 19 -3
30 -10 44 -20 44 -11 0 -16 -13 -18 -47 -2 -27 -8 -48 -14 -48 -7 0 -9 16 -6
45 4 30 1 48 -8 56 -20 17 -34 2 -34 -37 0 -40 -16 -77 -31 -69 -5 4 -9 29 -9
56 0 43 -3 50 -17 47 -13 -2 -19 -16 -23 -52 -7 -65 -30 -75 -30 -13 0 42 -18
75 -33 60 -4 -3 -7 -28 -7 -55 0 -41 -3 -48 -19 -48 -17 0 -20 8 -23 48 -2 34
-7 47 -18 47 -9 0 -16 -11 -18 -25 -6 -52 -13 -70 -28 -70 -13 0 -15 7 -11 36
4 20 1 46 -5 57 -10 20 -11 20 -24 2 -8 -10 -14 -36 -14 -57 0 -26 -4 -38 -14
-38 -11 0 -16 14 -18 48 -2 34 -7 47 -18 47 -11 0 -16 -13 -18 -48 -4 -62 -27
-58 -27 4 -1 55 -11 75 -31 58 -9 -7 -14 -31 -14 -61 0 -33 -4 -47 -11 -42 -6
3 -9 19 -5 35 7 34 -1 59 -19 59 -16 0 -25 -23 -25 -66 0 -51 -17 -41 -25 15
l-7 48 -40 0 c-33 0 -41 -4 -49 -24 -5 -13 -9 -36 -9 -49 0 -14 -4 -22 -10
-19 -5 3 -10 21 -10 39 0 17 -6 38 -12 45 -11 10 -6 19 24 47 41 37 72 43 86
18 9 -15 54 -15 593 0 583 16 837 22 2089 51 366 9 683 17 705 19 136 10 272
4 315 -13z m180 9 c0 -5 -7 -10 -15 -10 -8 0 -15 5 -15 10 0 6 7 10 15 10 8 0
15 -4 15 -10z m300 -10 c0 -14 -60 -50 -82 -50 -28 0 -21 18 15 40 35 22 67
26 67 10z m1715 -10 c-18 -20 -45 -27 -45 -12 0 9 37 30 54 31 5 1 1 -8 -9
-19z m665 5 c-14 -7 -27 -11 -30 -9 -6 7 22 24 40 23 9 0 5 -6 -10 -14z m274
5 c-15 -15 -73 -30 -79 -20 -6 9 39 28 70 29 13 1 16 -2 9 -9z m-1214 -5 c0
-6 -62 -45 -72 -45 -18 0 -6 20 20 34 27 15 52 20 52 11z m-1120 -15 c0 -5 -9
-14 -19 -20 -25 -13 -38 5 -14 19 23 13 33 14 33 1z m276 -16 c-11 -7 -22 -11
-25 -8 -3 3 3 12 13 20 11 7 22 11 25 8 3 -3 -3 -12 -13 -20z m308 12 c-7 -19
-52 -38 -60 -25 -9 15 16 39 42 39 16 0 22 -5 18 -14z m1336 5 c0 -12 -43 -39
-76 -47 l-29 -7 20 23 c28 32 85 53 85 31z m-8770 -21 c22 -11 40 -25 40 -30
0 -16 -35 -29 -95 -36 -65 -8 -124 -46 -105 -69 11 -13 4 -45 -10 -45 -4 0
-21 7 -38 16 -36 18 -63 9 -35 -11 17 -13 17 -14 -1 -34 -22 -25 -36 -27 -36
-6 0 8 -6 15 -13 15 -66 0 -308 -468 -367 -710 -11 -47 -27 -107 -35 -135 -7
-27 -19 -88 -25 -135 -12 -101 -29 -170 -41 -170 -5 0 -9 17 -9 37 0 54 -19
29 -27 -35 -9 -77 -24 -52 -17 29 5 44 3 69 -3 69 -26 0 -30 -145 -9 -282 7
-49 10 -88 6 -88 -9 0 -27 62 -35 123 -4 26 -11 47 -15 47 -17 0 -19 -34 -6
-97 8 -36 12 -73 8 -81 -13 -35 -25 40 -30 189 -4 152 -4 157 17 168 26 14 28
43 3 39 -15 -3 -17 4 -14 52 5 81 36 225 87 404 68 239 181 463 321 636 96
120 179 158 342 159 84 1 110 -3 142 -19z m6380 5 c-13 -16 -40 -20 -40 -7 0
14 12 22 33 22 16 0 17 -3 7 -15z m2027 -10 c-25 -22 -67 -34 -67 -20 0 9 64
45 80 45 10 -1 6 -9 -13 -25z m1063 17 c0 -8 -43 -32 -56 -32 -12 0 10 22 30
30 27 11 26 11 26 2z m216 -18 c-22 -16 -46 -19 -46 -5 0 10 52 31 60 24 3 -3
-4 -11 -14 -19z m-2656 7 c0 -12 -42 -42 -49 -36 -5 6 29 45 41 45 4 0 8 -4 8
-9z m790 -1 c0 -18 -50 -44 -62 -32 -7 7 -2 15 18 26 34 18 44 19 44 6z m290
-5 c-14 -16 -40 -20 -40 -6 0 10 17 19 39 20 11 1 11 -2 1 -14z m865 5 c-7
-11 -77 -32 -83 -25 -6 6 57 34 76 35 7 0 11 -4 7 -10z m965 0 c0 -5 -7 -10
-16 -10 -8 0 -12 5 -9 10 3 6 10 10 16 10 5 0 9 -4 9 -10z m-3762 -34 c4 -30
-12 -56 -34 -56 -9 0 -14 12 -14 33 0 57 42 77 48 23z m1120 22 c-6 -17 -49
-38 -62 -31 -11 8 30 43 51 43 8 0 13 -6 11 -12z m953 -28 c-12 -11 -27 -17
-33 -14 -14 9 12 34 36 34 21 -1 21 -1 -3 -20z m325 5 c-22 -17 -56 -20 -56
-6 0 12 19 19 50 20 24 0 24 0 6 -14z m-2336 -14 c0 -10 -7 -24 -15 -31 -13
-11 -15 -8 -15 19 0 21 5 31 15 31 8 0 15 -8 15 -19z m640 4 c-13 -16 -60 -21
-60 -6 0 12 18 19 49 20 20 1 21 -1 11 -14z m1097 9 c-3 -3 -12 -4 -19 -1 -8
3 -5 6 6 6 11 1 17 -2 13 -5z m-520 -10 c-3 -3 -12 -4 -19 -1 -8 3 -5 6 6 6
11 1 17 -2 13 -5z m191 -10 c-9 -9 -21 -13 -28 -9 -14 9 5 25 30 25 12 0 12
-3 -2 -16z m-1330 -11 c-4 -22 -48 -31 -48 -10 0 19 10 27 32 27 13 0 18 -6
16 -17z m432 7 c0 -5 -5 -10 -11 -10 -5 0 -7 5 -4 10 3 6 8 10 11 10 2 0 4 -4
4 -10z m3174 -12 c1 -2 -1 -120 -4 -263 l-5 -260 -65 1 c-75 0 -330 16 -330
20 0 1 3 9 6 18 5 12 9 13 24 3 11 -6 22 -8 26 -5 9 10 10 77 1 112 -6 23 -12
27 -29 22 -12 -3 -28 0 -35 6 -22 18 -28 0 -28 -83 0 -58 -3 -79 -12 -79 -9 0
-13 20 -13 70 0 39 -2 70 -4 70 -2 0 -12 3 -21 6 -15 6 -16 -2 -13 -75 2 -56
-1 -81 -8 -81 -19 0 -24 28 -18 83 4 37 2 57 -9 71 -25 34 -37 9 -37 -82 -1
-77 -2 -85 -15 -68 -10 13 -13 36 -9 80 6 66 -4 93 -31 82 -15 -5 -16 -19 -13
-96 2 -60 -1 -90 -8 -90 -19 0 -21 9 -12 77 6 54 5 72 -8 91 -9 13 -19 21 -22
17 -4 -4 -9 -52 -12 -108 l-5 -102 -38 -19 c-21 -10 -56 -20 -77 -23 l-40 -6
0 125 c0 98 -3 128 -15 138 -30 25 -36 1 -34 -142 l1 -140 -136 -75 c-76 -42
-140 -72 -144 -69 -3 4 -9 98 -13 209 -4 111 -7 203 -8 205 -1 1 -8 2 -16 2
-13 0 -15 -29 -15 -199 0 -110 4 -211 9 -225 8 -18 6 -28 -5 -37 -8 -6 -18 -9
-22 -5 -4 4 -9 110 -12 234 -5 206 -7 227 -22 230 -17 3 -18 -15 -19 -255 -1
-167 -5 -237 -9 -198 -4 33 -8 140 -9 238 -1 169 -8 217 -32 217 -6 0 -9 -99
-9 -281 1 -154 -1 -283 -4 -286 -15 -15 -18 19 -27 234 -14 350 -13 338 -27
338 -11 0 -13 -59 -12 -317 0 -183 -3 -318 -8 -318 -16 0 -22 98 -22 361 0
202 -3 259 -13 268 -8 6 -17 8 -20 4 -4 -3 -7 -160 -8 -347 -1 -425 -17 -411
-27 24 -6 280 -8 305 -25 308 -16 3 -17 -17 -12 -370 3 -240 1 -361 -5 -338
-5 19 -12 181 -15 360 -3 179 -8 335 -11 348 -2 12 -12 22 -20 22 -15 0 -16
-33 -11 -352 5 -246 3 -344 -4 -323 -5 17 -12 161 -15 320 -3 160 -7 300 -10
313 -2 12 -12 22 -21 22 -15 0 -16 -24 -9 -277 3 -153 9 -347 13 -430 4 -106
3 -153 -5 -153 -15 0 -21 94 -33 499 -6 233 -14 359 -21 368 -27 33 -30 -9
-19 -264 7 -142 13 -353 14 -470 2 -204 1 -213 -20 -240 -12 -15 -77 -105
-143 -199 l-121 -171 -68 -7 c-124 -11 -445 -17 -496 -9 l-50 8 -7 90 c-8 111
-25 587 -38 1090 -12 411 -15 455 -36 455 -17 0 -17 5 -4 -395 29 -858 37
-1221 28 -1237 -8 -17 -49 -18 -652 -18 l-643 0 -6 68 c-5 60 -11 274 -35
1267 -4 171 -5 313 -2 318 10 12 629 26 2575 58 380 6 832 15 1005 19 286 7
459 7 464 -2z m-9714 -9 c28 -6 63 -22 78 -35 l27 -24 -45 3 c-52 2 -63 -13
-19 -28 36 -12 28 -25 -15 -26 -29 -1 -29 -2 -7 -8 38 -10 36 -29 -3 -36 -19
-4 -40 -13 -46 -20 -8 -10 2 -12 53 -8 66 6 108 -7 137 -42 23 -27 4 -27 -49
0 -37 20 -58 25 -81 20 -43 -10 -39 -35 6 -35 61 0 115 -44 130 -106 l7 -29
-28 34 c-31 37 -115 81 -154 81 -13 0 -29 8 -36 17 -11 15 -15 15 -29 4 -9 -7
-16 -20 -16 -28 0 -9 -18 -33 -41 -55 -48 -47 -112 -143 -168 -256 -35 -69
-45 -82 -61 -77 -23 7 -31 -8 -89 -154 -45 -111 -103 -300 -122 -398 -14 -70
-34 -88 -22 -20 11 59 10 111 -2 117 -30 16 -39 -399 -11 -535 19 -92 6 -125
-17 -43 -27 95 -38 199 -36 356 0 84 -1 156 -4 159 -3 2 -11 -6 -18 -18 -8
-16 -10 -67 -6 -183 6 -170 24 -292 57 -387 18 -55 18 -89 0 -89 -11 0 -35 73
-56 170 -13 54 -18 134 -20 290 -3 220 -16 284 -29 144 -15 -154 13 -411 62
-569 32 -103 38 -135 25 -135 -10 0 -60 107 -80 170 -28 87 -44 225 -48 405
-3 128 -8 191 -15 194 -9 3 -10 -51 -6 -195 7 -273 34 -411 113 -567 33 -66
33 -68 12 -65 -41 6 -122 199 -153 363 -23 120 -21 337 5 490 53 316 179 645
335 880 106 158 212 240 348 270 79 17 77 17 137 4z m3725 2 c-11 -10 -123
-21 -142 -14 -36 13 -4 23 69 23 47 0 78 -4 73 -9z m115 -36 c0 -8 -4 -17 -10
-20 -6 -4 -10 5 -10 20 0 15 4 24 10 20 6 -3 10 -12 10 -20z m-1842 -9 c2 -9
1 -25 -3 -34 -5 -14 -7 -14 -15 -2 -14 22 -12 62 3 58 6 -3 14 -12 15 -22z
m8224 -193 c-7 -23 -19 -14 -26 19 -6 31 -1 100 12 168 5 25 8 6 12 -70 3 -58
4 -111 2 -117z m-54 102 c1 -89 -14 -115 -23 -43 -9 69 3 169 16 128 4 -14 7
-52 7 -85z m-8293 50 c0 -10 -6 -20 -12 -22 -8 -3 -13 5 -13 22 0 17 5 25 13
23 6 -3 12 -13 12 -23z m3774 -538 c3 -309 5 -681 5 -827 l1 -265 -1066 -3
-1067 -2 -6 182 c-4 101 -11 454 -16 785 -8 571 -14 676 -36 619 -4 -10 -2
-323 4 -695 6 -372 8 -724 5 -782 l-6 -107 -201 -7 c-110 -3 -435 -5 -721 -3
l-519 3 -12 25 c-7 14 -24 63 -39 110 -91 283 -321 614 -548 785 -200 151
-448 241 -695 252 -72 3 -132 10 -132 14 0 16 45 38 235 112 330 130 571 200
811 236 297 45 379 51 869 61 478 10 786 18 1575 41 658 18 995 26 1280 27
l275 2 4 -563z m-3844 523 c0 -7 -6 -15 -12 -17 -8 -3 -13 4 -13 17 0 13 5 20
13 18 6 -3 12 -11 12 -18z m8470 -30 c11 -80 -13 -149 -29 -84 -8 32 3 134 14
134 5 0 11 -22 15 -50z m-9848 -16 c-6 -35 -31 -74 -49 -74 -14 0 -9 29 12 70
26 51 45 53 37 4z m1143 -5 c0 -10 -7 -19 -15 -19 -15 0 -21 31 -9 43 11 10
24 -3 24 -24z m65 21 c3 -5 1 -10 -4 -10 -6 0 -11 5 -11 10 0 6 2 10 4 10 3 0
8 -4 11 -10z m-137 -27 c-2 -17 -9 -28 -18 -28 -9 0 -16 11 -18 28 -3 22 1 27
18 27 17 0 21 -5 18 -27z m-73 -13 c0 -16 -6 -26 -18 -28 -19 -4 -32 20 -23
44 9 25 41 13 41 -16z m-77 -19 c5 -35 -13 -48 -37 -27 -21 19 -41 14 -41 -11
0 -12 -7 -14 -34 -10 -28 4 -37 1 -49 -16 -14 -21 -15 -22 -35 -4 -20 18 -21
18 -37 -13 l-17 -32 -23 22 -23 22 -12 -36 c-13 -41 -24 -45 -42 -16 -17 27
-27 25 -38 -6 -9 -23 -13 -24 -26 -13 -14 11 -18 10 -30 -6 -8 -10 -14 -23
-14 -28 0 -5 -14 -6 -30 -2 -22 5 -32 3 -36 -9 -3 -9 -16 -16 -29 -16 -12 0
-28 -7 -35 -15 -7 -8 -23 -15 -36 -15 -13 0 -28 -9 -34 -20 -8 -15 -17 -19
-35 -14 -18 4 -25 2 -25 -8 0 -18 -36 -52 -47 -45 -12 7 -25 -3 -44 -33 -12
-18 -34 -30 -80 -42 -95 -25 -119 -29 -119 -21 0 14 211 145 320 200 128 65
316 139 470 187 208 64 213 65 218 27z m-1823 -24 c-17 -26 -52 -48 -39 -24
12 21 47 57 52 53 2 -2 -4 -16 -13 -29z m10595 -19 c0 -16 -4 -28 -10 -28 -5
0 -10 19 -10 43 0 31 3 38 10 27 5 -8 10 -27 10 -42z m-9585 -15 c48 -101 50
-164 5 -178 -30 -9 -35 -1 -20 34 6 16 10 38 8 48 -3 14 -8 10 -20 -17 -16
-37 -44 -67 -54 -57 -4 3 8 30 25 60 33 58 42 99 18 78 -8 -6 -22 -29 -32 -50
-18 -41 -45 -62 -45 -35 0 8 5 25 11 37 17 35 73 117 80 117 3 0 14 -17 24
-37z m-1101 -4 c-21 -24 -29 -18 -14 10 6 12 16 19 21 15 6 -4 4 -13 -7 -25z
m11371 -80 c-26 -72 -30 -183 -11 -278 18 -87 17 -97 -8 -88 -38 15 -69 223
-46 316 13 55 57 118 72 103 5 -5 2 -27 -7 -53z m-79 24 c-28 -133 -29 -157
-11 -258 26 -145 25 -149 -8 -153 -33 -4 -71 18 -88 50 -17 32 -39 153 -39
216 0 100 47 172 113 172 38 0 39 -1 33 -27z m-551 6 c4 -5 -3 -33 -15 -61
-16 -37 -23 -82 -29 -169 -4 -65 -10 -122 -14 -125 -4 -4 -33 6 -64 22 -51 26
-58 34 -66 69 -18 86 13 218 61 255 27 22 116 28 127 9z m75 -62 c-38 -86 -54
-182 -46 -281 l6 -81 -26 29 c-26 29 -26 31 -22 160 3 111 7 137 26 173 24 46
57 74 77 67 10 -4 6 -21 -15 -67z m667 58 c41 -29 55 -146 33 -285 -16 -96
-18 -100 -49 -100 -38 0 -46 12 -65 97 -28 124 -16 233 30 284 21 23 24 23 51
4z m-10846 -21 c59 -30 125 -140 117 -195 -2 -18 -10 -8 -32 46 -37 88 -66
129 -107 145 -29 13 -36 11 -86 -15 -64 -33 -127 -101 -170 -181 -51 -96 -159
-382 -202 -536 -22 -78 -49 -168 -61 -198 l-20 -55 6 55 c4 30 21 105 39 165
58 194 111 359 129 400 30 71 150 276 185 317 61 72 129 89 202 52z m9922 10
c-1 -5 -10 -29 -19 -54 -8 -25 -19 -81 -22 -125 -5 -60 -11 -80 -22 -80 -18 0
-28 35 -29 101 -1 63 14 111 47 147 24 25 50 32 45 11z m568 -49 c-18 -70 -13
-174 10 -249 16 -51 19 -70 10 -79 -15 -15 -23 -3 -52 72 -40 107 -36 213 12
291 27 42 36 27 20 -35z m-161 35 c33 -17 44 -77 45 -230 0 -142 -1 -146 -28
-193 -33 -56 -51 -66 -86 -46 -67 38 -104 177 -82 305 17 98 34 130 78 153 45
24 48 24 73 11z m-10300 -88 c34 -41 57 -104 66 -177 5 -47 4 -49 -11 -30 -8
11 -24 48 -35 82 -36 117 -42 124 -123 138 -39 6 -41 21 -4 34 32 12 73 -6
107 -47z m-695 26 c-9 -29 -55 -101 -61 -95 -9 9 48 117 62 117 3 0 2 -10 -1
-22z m647 -72 c23 -17 54 -89 63 -146 9 -57 3 -51 -29 30 -17 43 -39 76 -63
97 -37 31 -37 33 -13 33 14 -1 33 -7 42 -14z m-162 -6 c0 -5 -5 -10 -11 -10
-5 0 -7 5 -4 10 3 6 8 10 11 10 2 0 4 -4 4 -10z m165 -104 c28 -58 43 -136 27
-136 -6 0 -18 23 -27 50 -9 28 -32 73 -50 100 -18 27 -31 51 -28 54 14 14 56
-23 78 -68z m10995 69 c0 -3 -10 -25 -22 -48 -20 -38 -23 -40 -26 -18 -6 39 6
71 28 71 11 0 20 -2 20 -5z m100 -10 c0 -3 -20 -41 -44 -83 -133 -230 -206
-500 -206 -761 l0 -121 -34 0 c-36 0 -62 22 -50 42 4 6 8 37 9 67 3 131 19
253 46 346 60 212 103 316 180 436 40 63 56 79 75 79 13 0 24 -2 24 -5z
m-11357 -147 c-101 -242 -154 -408 -177 -549 -7 -40 -30 -78 -42 -67 -16 17
115 443 180 583 37 80 84 165 91 165 2 0 -21 -60 -52 -132z m11453 118 c3 -8
-12 -39 -34 -68 -89 -118 -156 -259 -192 -406 -26 -107 -42 -281 -32 -373 9
-91 7 -99 -22 -99 -36 0 -46 19 -46 90 1 293 89 602 232 813 30 44 45 57 64
57 13 0 27 -6 30 -14z m-1509 -25 c278 -62 522 -199 739 -416 67 -67 131 -140
143 -162 19 -37 19 -42 4 -54 -8 -8 -46 -15 -83 -17 -86 -5 -143 19 -202 84
-187 205 -269 276 -413 359 -38 23 -85 50 -104 62 -18 12 -61 26 -94 32 -36 6
-69 19 -83 32 -55 51 -399 41 -544 -17 -19 -7 -57 -19 -85 -25 -65 -15 -242
-94 -351 -155 -312 -179 -637 -518 -910 -950 -144 -229 -177 -277 -248 -362
-73 -88 -206 -198 -258 -214 -21 -6 -61 -31 -88 -54 -37 -31 -73 -50 -128 -68
-173 -54 -45 -51 -2162 -47 -1081 2 -2140 6 -2355 10 l-390 6 -18 52 c-17 45
-23 52 -54 58 -30 5 -33 8 -21 22 11 14 85 15 713 9 1675 -15 1753 -16 1758
-37 5 -18 21 -19 284 -21 361 -3 378 -2 438 26 l50 23 305 -8 c168 -4 541 -8
830 -8 444 -1 522 -3 510 -15 -8 -7 -31 -19 -50 -26 -52 -18 -618 -32 -1075
-25 -214 3 -1045 10 -1845 15 -800 5 -1537 12 -1637 16 -181 6 -183 6 -183
-15 0 -21 0 -21 433 -21 397 0 1451 -8 3487 -29 752 -8 798 -7 851 10 67 22
271 145 394 239 153 116 224 192 284 304 211 397 572 850 832 1046 270 203
539 319 844 364 17 2 111 3 210 1 135 -2 203 -8 272 -24z m-9747 -21 c6 -11 7
-20 2 -20 -10 0 -32 21 -32 32 0 16 19 8 30 -12z m11334 12 c3 -5 -20 -41 -50
-81 -164 -219 -239 -528 -198 -813 5 -33 3 -38 -14 -38 -39 0 -47 27 -51 162
-3 144 15 284 53 396 69 202 226 428 260 374z m-10410 -42 c161 -40 327 -124
477 -239 74 -56 86 -74 71 -99 -7 -9 -15 -10 -35 -3 -26 10 -27 9 -27 -24 0
-19 -4 -35 -9 -35 -5 0 -37 21 -72 48 -34 26 -74 56 -88 66 -14 11 -44 36 -66
57 -49 47 -84 62 -220 94 -178 42 -479 32 -626 -21 -187 -67 -310 -147 -457
-298 -212 -217 -296 -387 -441 -895 -40 -140 -106 -301 -130 -315 -16 -10 -15
-6 19 69 35 79 70 191 139 447 68 255 116 372 209 515 43 65 84 131 92 147 24
46 235 260 320 325 212 159 573 228 844 161z m10438 -37 c-53 -65 -99 -151
-132 -241 -57 -157 -64 -207 -64 -434 0 -115 -3 -208 -6 -208 -21 1 -34 30
-47 111 -28 162 4 367 87 566 43 103 119 216 159 237 37 20 38 13 3 -31z
m-11413 11 c29 -37 45 -100 33 -132 -12 -34 -188 -216 -201 -208 -10 7 9 103
35 176 30 83 86 190 100 190 7 0 22 -12 33 -26z m101 -56 c0 -15 -4 -28 -9
-28 -10 0 -21 35 -21 70 1 24 1 24 15 6 8 -11 15 -32 15 -48z m11380 34 c0 -4
-16 -29 -35 -56 -19 -27 -35 -57 -35 -67 0 -19 -66 -76 -77 -66 -12 13 58 137
95 167 36 30 52 37 52 22z m-12216 -67 c-21 -80 -33 -100 -33 -55 -1 34 35
128 44 119 2 -3 -3 -32 -11 -64z m11276 -28 c-16 -41 -30 -80 -30 -86 0 -14
-37 -14 -45 0 -4 6 2 20 13 32 19 20 47 75 66 131 4 13 10 16 17 9 6 -6 0 -35
-21 -86z m-1025 51 c3 -18 5 -123 3 -233 l-3 -200 -25 0 -25 0 -3 219 c-2 220
1 246 34 246 7 0 16 -15 19 -32z m95 18 c14 -18 27 -328 16 -399 -7 -47 -8
-48 -38 -45 l-31 3 2 190 c3 252 12 297 51 251z m-9969 -207 c-105 -321 -103
-316 -106 -492 -2 -148 -6 -179 -21 -164 -13 13 -16 139 -5 235 15 127 48 261
104 427 54 159 79 216 84 194 2 -9 -23 -99 -56 -200z m9664 189 c2 -13 1 -126
-3 -253 l-7 -230 -25 0 c-23 0 -25 3 -23 40 1 22 4 130 5 240 2 110 7 206 11
213 13 20 36 14 42 -10z m113 -207 c3 -237 0 -251 -44 -251 l-24 0 0 218 c0
119 3 227 6 240 5 18 13 22 33 20 l26 -3 3 -224z m2091 166 c-10 -35 -46 -77
-66 -77 -17 0 -16 14 3 53 39 76 83 93 63 24z m-2304 11 c3 -18 5 -134 3 -258
l-3 -225 -27 -9 c-15 -5 -29 -8 -31 -5 -9 12 12 489 22 508 17 30 29 26 36
-11z m518 -58 c4 -47 6 -141 5 -210 l-3 -125 -31 -3 -32 -3 3 204 c1 112 5
209 9 216 4 7 15 11 24 9 14 -3 19 -21 25 -88z m-611 -145 c-4 -295 -10 -335
-55 -335 -20 0 -20 4 -14 173 4 94 7 209 7 254 0 85 14 118 48 111 14 -3 16
-28 14 -203z m1501 192 c7 -19 -38 -170 -53 -175 -37 -13 -39 66 -4 136 25 51
47 65 57 39z m275 -19 c-3 -18 -17 -73 -31 -122 -26 -86 -57 -279 -57 -355 0
-46 -6 -53 -34 -39 -22 9 -23 14 -21 121 3 161 60 392 103 417 33 19 44 12 40
-22z m90 -5 c-5 -21 -28 -94 -50 -163 -35 -109 -42 -148 -57 -310 -16 -167
-19 -182 -30 -155 -20 46 -8 327 18 430 40 161 76 235 116 235 11 0 11 -8 3
-37z m-1165 13 c17 -18 33 -303 19 -351 -7 -25 -14 -30 -38 -30 l-29 0 -3 185
c-1 101 0 190 2 197 7 17 31 16 49 -1z m981 6 c3 -5 -3 -37 -14 -73 -10 -35
-29 -110 -41 -166 -12 -57 -26 -103 -31 -103 -14 0 -48 64 -48 92 0 15 5 39
11 55 6 15 15 54 19 87 9 59 29 92 65 107 27 10 33 11 39 1z m-104 -20 c0 -10
-9 -43 -20 -75 -11 -31 -20 -72 -20 -91 0 -37 -23 -66 -36 -44 -4 7 -8 40 -8
73 0 73 34 155 65 155 12 0 19 -7 19 -18z m-1687 -264 c-5 -248 -6 -264 -25
-280 -44 -39 -48 -28 -48 130 1 159 14 385 25 402 3 5 17 10 29 10 l24 0 -5
-262z m-8424 226 c2 -10 -2 -117 -9 -236 -10 -176 -16 -218 -27 -218 -12 0
-14 35 -12 218 1 119 6 227 11 240 9 27 31 25 37 -4z m135 -11 c14 -89 -2
-355 -24 -377 -7 -7 -10 34 -10 135 0 226 17 344 34 242z m71 -164 c0 -189 -1
-194 -21 -197 -20 -3 -20 0 -17 165 4 193 9 236 26 230 9 -3 12 -56 12 -198z
m88 125 c4 -38 6 -123 5 -189 l-3 -120 -25 0 -25 0 3 140 c3 180 10 247 25
242 7 -2 15 -35 20 -73z m9057 42 c10 -13 10 -37 1 -123 -6 -60 -11 -132 -11
-160 0 -46 -3 -53 -19 -53 -11 0 -23 5 -27 11 -8 13 -6 323 3 345 6 15 31 6
53 -20z m-9435 -226 c-7 -217 -11 -250 -29 -250 -17 0 -28 90 -21 163 3 28 10
108 16 177 12 146 17 166 31 130 6 -15 7 -100 3 -220z m150 203 c11 -61 -5
-391 -20 -397 -19 -7 -23 63 -14 231 4 81 8 160 8 176 1 40 18 33 26 -10z
m297 -108 c1 -80 2 -157 2 -172 1 -19 -5 -29 -16 -31 -16 -3 -18 7 -18 111 0
134 9 237 21 237 5 0 10 -65 11 -145z m7949 -130 c-2 -194 -7 -267 -17 -286
-12 -25 -33 -39 -55 -39 -10 0 -11 267 -1 436 6 91 11 116 26 133 11 12 27 20
35 19 14 -3 15 -34 12 -263z m-8477 -9 c-6 -194 -10 -236 -22 -241 -8 -3 -17
-4 -19 -2 -6 7 14 472 22 491 20 46 25 -26 19 -248z m604 102 c-3 -146 -5
-163 -20 -166 -16 -3 -18 8 -18 131 0 151 6 197 26 197 12 0 14 -29 12 -162z
m-672 -85 c-7 -247 -12 -296 -30 -290 -17 6 -15 464 2 495 31 54 35 26 28
-205z m755 62 c-5 -115 -9 -140 -21 -140 -13 0 -15 22 -15 135 0 146 7 184 29
159 9 -11 11 -47 7 -154z m8917 -13 c2 -150 1 -162 -15 -162 -10 0 -23 4 -29
8 -36 24 -8 332 29 319 8 -2 13 -52 15 -165z m-10808 79 c-6 -23 -15 -41 -20
-41 -10 0 -3 50 13 90 15 38 21 1 7 -49z m1055 -200 c-5 -194 -10 -259 -21
-270 -22 -24 -27 9 -19 137 4 64 6 165 5 224 -2 108 12 184 32 172 7 -4 8 -92
3 -263z m8512 -14 l5 -276 -30 -31 c-17 -16 -35 -30 -40 -30 -16 0 -20 93 -14
343 l5 238 25 20 c14 11 30 18 35 16 5 -1 11 -118 14 -280z m-9526 236 c-10
-17 -10 -16 -11 3 0 23 13 41 18 25 2 -6 -1 -18 -7 -28z m1922 -93 c-2 -112
-11 -155 -29 -137 -10 10 -10 185 -1 230 5 23 13 37 20 34 9 -3 11 -39 10
-127z m8921 92 c9 -27 12 -280 4 -288 -4 -3 -14 -4 -23 -1 -12 5 -15 28 -15
134 0 129 5 173 20 173 5 0 11 -8 14 -18z m-9900 -118 c-1 -203 -14 -416 -25
-430 -32 -39 -35 13 -18 316 12 222 15 243 32 237 9 -3 12 -38 11 -123z m-413
-5 c-6 -20 -18 -42 -26 -49 -23 -19 -19 38 8 107 l22 58 3 -40 c2 -22 -1 -56
-7 -76z m1459 -10 c0 -76 -3 -100 -12 -96 -19 6 -12 197 7 197 3 0 5 -45 5
-101z m8939 83 c12 -23 26 -222 17 -256 -7 -29 -27 -34 -45 -12 -14 17 -4 286
10 286 5 0 13 -8 18 -18z m-10063 -161 c-17 -408 -19 -431 -51 -431 -12 0 -14
34 -9 228 6 278 9 318 29 349 32 48 38 17 31 -146z m8538 147 c3 -13 6 -145 6
-293 l0 -270 -31 -38 c-17 -20 -37 -37 -44 -37 -16 0 -14 64 11 302 8 75 14
181 14 236 0 63 4 102 12 110 17 17 25 15 32 -10z m-7336 -79 c3 -124 -27
-158 -36 -39 -5 72 5 133 21 127 8 -2 13 -33 15 -88z m9980 -324 c1 -170 1
-170 -18 -147 -58 70 -64 318 -12 497 l17 60 6 -120 c4 -66 7 -196 7 -290z
m-2720 325 c2 -25 -3 -108 -12 -185 -8 -77 -18 -203 -21 -280 -8 -162 -16
-204 -50 -242 l-24 -28 -1 40 c0 22 7 121 15 220 8 99 15 244 15 323 0 138 7
176 34 194 25 18 41 3 44 -42z m-8555 -351 c-6 -168 -12 -220 -23 -234 -14
-17 -16 -15 -22 26 -16 106 0 477 24 549 12 34 12 34 21 -45 4 -44 4 -177 0
-296z m1372 264 c-7 -47 -18 -54 -36 -22 -11 22 -6 99 8 122 13 22 35 -55 28
-100z m8893 -39 c2 -59 0 -110 -5 -115 -5 -5 -18 -2 -31 7 -20 13 -22 24 -22
97 0 45 3 99 7 120 l6 39 21 -21 c18 -19 21 -36 24 -127z m-8722 74 c42 -46
122 -179 174 -291 31 -66 63 -167 55 -175 -2 -2 -20 27 -39 64 -20 38 -40 76
-45 84 -5 8 -31 62 -59 120 -28 58 -76 138 -107 178 -30 40 -55 75 -55 78 0
12 40 -19 76 -58z m170 -76 c14 -24 24 -46 21 -48 -6 -6 -88 108 -106 146 -18
37 53 -45 85 -98z m-2585 -19 c-9 -15 -10 -12 -11 17 0 19 4 53 8 75 7 40 7
40 10 -17 2 -32 -2 -66 -7 -75z m9315 40 c4 -40 0 -161 -10 -298 -9 -126 -16
-270 -16 -320 0 -67 -5 -106 -22 -152 -12 -35 -25 -63 -30 -63 -8 0 -6 171 7
669 5 161 8 198 22 213 30 33 41 22 49 -49z m-7011 9 c0 -59 -19 -57 -23 2 -2
36 0 47 10 44 8 -3 13 -21 13 -46z m-1506 -64 c0 -51 -6 -194 -12 -318 -11
-189 -16 -230 -32 -257 -17 -30 -40 -37 -30 -10 3 7 12 131 20 277 14 264 30
400 46 400 5 0 9 -42 8 -92z m10421 -44 c0 -46 -4 -85 -9 -88 -24 -15 -40 97
-24 174 6 31 7 32 20 15 8 -12 13 -48 13 -101z m-10480 39 c0 -21 -6 -90 -14
-153 -9 -63 -20 -194 -26 -290 -13 -204 -26 -313 -45 -355 -13 -28 -13 -25
-14 51 -1 44 6 154 15 245 8 90 21 241 28 336 12 162 22 203 47 203 5 0 9 -17
9 -37z m10024 31 c9 -3 16 -10 16 -14 0 -10 -38 -1 -46 11 -6 10 7 12 30 3z
m-8386 -22 c2 -7 -3 -12 -12 -12 -9 0 -16 7 -16 16 0 17 22 14 28 -4z m6828
-189 c-3 -115 -9 -326 -12 -470 -6 -240 -8 -264 -25 -279 -30 -27 -36 -7 -28
91 4 50 11 259 15 465 4 222 11 380 17 388 5 6 16 12 24 12 14 0 15 -27 9
-207z m1402 198 c24 -5 49 -14 55 -21 15 -16 -65 -6 -121 15 -37 14 -37 14 -7
14 17 0 49 -4 73 -8z m242 -31 c0 -5 -4 -10 -10 -10 -5 0 -10 5 -10 10 0 6 5
10 10 10 6 0 10 -4 10 -10z m-521 -4 c-2 -2 -47 -6 -99 -9 -56 -3 -79 -2 -55
3 42 8 161 13 154 6z m288 -32 c47 -13 97 -31 112 -40 14 -8 18 -13 8 -10
-131 40 -174 51 -261 67 l-101 19 78 -6 c43 -3 117 -16 164 -30z m689 11 c13
-20 16 -41 12 -96 -6 -78 -11 -88 -33 -69 -11 9 -15 34 -15 101 0 93 8 107 36
64z m-9541 5 c3 -5 -3 -10 -14 -10 -12 0 -21 5 -21 10 0 6 6 10 14 10 8 0 18
-4 21 -10z m9012 -11 c59 -20 103 -49 72 -49 -18 1 -158 68 -143 69 5 1 38 -8
71 -20z m-10774 -101 c4 -62 10 -131 13 -153 4 -22 3 -37 -1 -33 -12 11 -35
159 -35 231 0 109 16 77 23 -45z m1690 105 c-7 -2 -19 -2 -25 0 -7 3 -2 5 12
5 14 0 19 -2 13 -5z m7437 -147 c0 -151 -18 -600 -28 -715 -6 -69 -9 -76 -29
-79 -23 -3 -23 -3 -23 135 0 235 29 734 46 771 25 57 34 27 34 -112z m925 134
c-11 -5 -27 -9 -35 -9 -13 -1 -13 0 0 9 8 5 24 9 35 9 l20 0 -20 -9z m868 -1
c37 -20 118 -81 113 -86 -5 -5 -146 83 -146 92 0 8 9 6 33 -6z m-10267 -111
c-4 -62 -18 -228 -31 -368 -13 -140 -27 -303 -31 -362 -4 -60 -11 -108 -17
-108 -17 0 10 690 33 844 9 53 31 106 47 106 3 0 3 -51 -1 -112z m844 102
c-20 -13 -33 -13 -25 0 3 6 14 10 23 10 15 0 15 -2 2 -10z m520 0 l25 -8 -25
-1 c-14 0 -32 4 -40 9 -13 9 -13 10 0 9 8 -1 26 -5 40 -9z m8415 0 c301 -34
579 -199 746 -442 326 -476 214 -1119 -252 -1451 -86 -61 -232 -130 -334 -157
-101 -28 -330 -38 -442 -20 -321 52 -614 272 -757 571 -169 351 -147 725 61
1037 169 254 454 430 748 461 114 12 130 12 230 1z m963 -110 c-3 -66 -8 -123
-11 -127 -4 -3 -13 0 -22 7 -12 10 -15 36 -15 120 0 58 3 110 7 113 3 4 15 7
26 7 19 0 20 -6 15 -120z m76 -43 c4 -84 3 -164 -2 -176 l-8 -22 -18 20 c-17
18 -18 35 -14 168 4 141 10 179 27 169 4 -3 11 -74 15 -159z m-9553 128 c147
-25 285 -82 414 -168 80 -53 222 -199 264 -270 47 -81 89 -208 106 -328 9 -57
20 -122 26 -144 17 -66 31 -245 25 -315 -13 -166 -131 -392 -285 -546 -133
-134 -288 -223 -476 -274 -101 -28 -312 -38 -424 -20 -242 39 -481 172 -631
352 -74 89 -182 300 -210 411 -44 175 -44 369 0 542 25 98 112 280 174 361 58
78 181 195 253 241 129 82 316 152 443 166 87 9 245 6 321 -8z m8034 5 c-3 -5
-12 -10 -18 -10 -7 0 -6 4 3 10 19 12 23 12 15 0z m1584 -114 c14 -135 14
-323 2 -331 -24 -14 -31 43 -31 246 0 232 11 265 29 85z m-10149 110 c0 -3 -4
-8 -10 -11 -5 -3 -10 -1 -10 4 0 6 5 11 10 11 6 0 10 -2 10 -4z m1315 -91 c20
-41 54 -141 76 -222 39 -146 73 -322 64 -331 -6 -7 -11 9 -40 132 -20 84 -118
402 -153 495 -3 8 -1 12 5 8 6 -4 27 -40 48 -82z m-1365 70 c0 -8 -73 -36 -78
-30 -3 2 10 11 29 19 36 16 49 19 49 11z m955 -13 c-3 -3 -11 0 -18 7 -9 10
-8 11 6 5 10 -3 15 -9 12 -12z m8703 -49 c85 -55 222 -197 285 -294 96 -147
161 -299 128 -299 -5 0 -12 12 -16 27 -13 52 -75 176 -130 258 -71 107 -176
219 -278 297 -88 66 -82 72 11 11z m1219 -112 c6 -68 5 -73 -13 -69 -13 2 -21
15 -26 43 -9 53 -10 160 -1 169 12 12 33 -64 40 -143z m-1301 100 c73 -49 112
-81 99 -80 -5 0 -48 27 -95 59 -94 67 -97 83 -4 21z m-11004 4 c3 -13 1 -22
-3 -19 -9 5 -13 44 -5 44 2 0 6 -11 8 -25z m9124 -112 c-4 -76 -10 -268 -14
-426 -6 -235 -10 -289 -22 -297 -8 -5 -18 -6 -22 -4 -9 6 -9 308 0 604 6 173
10 210 25 233 35 53 40 35 33 -110z m2578 99 c11 -22 14 -71 12 -222 -5 -329
-3 -307 -23 -287 -16 16 -18 46 -21 283 -3 270 0 288 32 226z m-499 -2 c12
-19 -12 -10 -31 11 -19 22 -19 22 3 10 12 -6 25 -16 28 -21z m122 -22 c152
-124 275 -322 334 -536 32 -118 38 -384 11 -513 -23 -111 -74 -243 -131 -338
-79 -132 -212 -269 -323 -331 l-43 -24 59 65 c180 198 287 442 310 709 6 61
-4 216 -20 320 -7 41 -6 44 9 32 24 -20 49 -106 45 -154 -2 -33 1 -44 14 -46
9 -2 19 1 22 6 3 5 -4 59 -15 121 -15 85 -29 132 -60 192 -21 44 -49 105 -60
136 -24 63 -107 190 -181 276 -62 72 -39 77 31 7 106 -106 193 -256 262 -453
29 -81 39 -127 39 -171 0 -61 16 -110 35 -108 34 5 -6 221 -72 386 -67 171
-154 299 -275 410 -86 79 -81 87 9 14z m-8807 11 l35 -30 -33 18 c-36 19 -61
43 -45 43 5 0 24 -14 43 -31z m340 10 c0 -5 -4 -9 -10 -9 -5 0 -10 7 -10 16 0
8 5 12 10 9 6 -3 10 -10 10 -16z m-2790 -124 c12 -60 23 -119 26 -130 4 -16 3
-17 -5 -5 -21 34 -69 273 -50 253 4 -4 17 -57 29 -118z m9721 97 c-14 -9 -43
-32 -64 -49 -38 -33 -47 -38 -47 -28 0 8 115 95 125 94 6 0 -1 -8 -14 -17z
m-8577 -7 c-10 -8 -23 -14 -29 -14 -5 0 -1 6 9 14 11 8 24 15 30 15 5 0 1 -7
-10 -15z m-568 -177 c-13 -377 -24 -584 -31 -601 -13 -32 -30 -12 -29 34 14
449 27 678 41 712 9 20 18 37 21 37 3 0 2 -82 -2 -182z m1964 130 c0 -13 -23
-5 -28 10 -2 7 2 10 12 6 9 -3 16 -11 16 -16z m9392 -12 c166 -32 365 -121
425 -190 45 -52 84 -136 91 -193 4 -42 3 -45 -18 -41 -18 2 -26 13 -36 56 -37
142 -157 233 -427 322 -102 33 -131 39 -142 30 -10 -8 -12 -17 -6 -29 11 -20
35 -220 28 -228 -12 -12 -27 10 -27 41 0 18 -11 70 -25 116 -14 46 -25 94 -25
107 0 21 5 23 44 23 24 0 77 -6 118 -14z m-9102 -27 c0 -11 -4 -17 -10 -14 -5
3 -10 15 -10 26 0 11 5 17 10 14 6 -3 10 -15 10 -26z m6131 -268 c-2 -160 -7
-328 -10 -374 -5 -73 -8 -82 -26 -82 -19 0 -20 7 -16 350 2 282 6 355 18 378
8 16 20 26 26 24 9 -3 11 -76 8 -296z m3398 224 c29 -59 42 -105 30 -105 -5 0
-28 17 -50 38 -40 38 -59 91 -45 128 6 15 8 15 24 0 10 -8 28 -36 41 -61z
m-12381 -33 c5 -28 6 -52 2 -52 -8 0 -26 59 -35 115 -6 39 -6 39 9 15 8 -14
19 -49 24 -78z m11147 58 c16 -16 26 -32 24 -35 -3 -2 -21 11 -39 30 -19 19
-29 35 -24 35 6 0 23 -13 39 -30z m596 -97 c25 -100 27 -249 4 -330 -19 -65
-44 -118 -52 -110 -7 8 -4 462 4 511 8 49 17 34 44 -71z m196 57 c7 -14 13
-46 13 -72 0 -26 5 -50 10 -53 6 -4 10 18 10 60 0 63 1 66 22 63 17 -2 25 -14
35 -53 18 -70 17 -130 -3 -146 -14 -11 -18 -10 -30 6 -8 10 -14 22 -14 27 0
21 -19 4 -25 -22 -12 -53 -34 -34 -59 49 -25 86 -19 175 13 169 8 -2 21 -14
28 -28z m-10947 -5 c-7 -9 -15 -13 -17 -11 -7 7 7 26 19 26 6 0 6 -6 -2 -15z
m8570 -10 c-7 -9 -15 -13 -18 -10 -3 2 1 11 8 20 7 9 15 13 18 10 3 -2 -1 -11
-8 -20z m2534 -18 c16 -12 40 -122 29 -139 -7 -12 -51 -9 -59 4 -9 14 -15 128
-8 140 7 11 17 10 38 -5z m-3205 -298 c1 -305 -3 -359 -29 -359 -10 0 -20 6
-22 13 -2 6 -4 141 -3 298 2 260 3 288 21 317 16 28 20 30 26 15 3 -10 7 -138
7 -284z m3291 209 c0 -30 -9 -35 -28 -16 -13 13 -16 60 -5 72 12 11 33 -25 33
-56z m-11663 -145 c-5 -171 -22 -367 -33 -402 -3 -11 -7 -11 -20 0 -12 10 -15
24 -10 59 10 79 28 343 27 409 0 58 18 121 36 121 3 0 3 -84 0 -187z m11733
141 c0 -11 -6 -14 -16 -10 -9 3 -18 6 -20 6 -2 0 -4 9 -4 20 0 18 3 19 20 10
11 -6 20 -18 20 -26z m-12170 -57 c0 -5 -4 -5 -10 -2 -5 3 -10 14 -10 23 0 15
2 15 10 2 5 -8 10 -19 10 -23z m6480 -221 c0 -283 -6 -348 -29 -344 -14 3 -16
35 -18 276 -3 275 3 327 32 316 13 -5 15 -40 15 -248z m1521 237 c11 -13 13
-68 11 -277 -3 -252 -4 -262 -24 -279 -19 -16 -23 -16 -36 -3 -12 12 -13 42
-2 221 7 114 9 234 6 267 -9 77 13 111 45 71z m-4910 -15 c2 -13 2 -140 -1
-283 -4 -222 -7 -260 -20 -260 -13 0 -15 28 -14 195 1 213 11 370 24 370 4 0
9 -10 11 -22z m800 -252 c-13 -261 -18 -299 -35 -293 -8 3 -11 75 -10 248 1
204 4 251 18 284 16 36 18 38 28 21 8 -14 8 -87 -1 -260z m150 -21 c-6 -147
-13 -271 -16 -276 -4 -5 -13 -9 -22 -9 -14 0 -14 30 -8 278 7 281 13 318 43
288 13 -13 13 -49 3 -281z m804 0 c0 -183 -4 -289 -10 -292 -5 -1 -17 2 -25 7
-13 8 -15 49 -14 280 1 201 5 274 14 285 32 38 35 10 35 -280z m82 283 c12
-16 -5 -549 -18 -562 -5 -5 -12 -6 -16 -2 -10 10 -10 468 0 529 8 48 17 57 34
35z m168 -170 c6 -129 -7 -376 -20 -399 -3 -4 -11 -6 -19 -3 -10 4 -12 61 -8
277 4 263 13 343 33 290 4 -12 11 -86 14 -165z m153 -115 c-3 -277 -8 -312
-40 -285 -10 8 -11 33 -6 104 3 51 7 177 7 279 1 102 4 189 8 192 3 4 13 1 21
-5 12 -10 14 -55 10 -285z m77 210 c10 -116 0 -441 -14 -477 -10 -25 -14 -27
-24 -15 -10 11 -11 69 -6 254 7 239 14 325 29 325 5 0 11 -39 15 -87z m140
-18 c3 -50 8 -117 11 -151 7 -80 -2 -116 -29 -112 -20 3 -21 8 -18 178 1 96 5
178 8 183 13 21 23 -15 28 -98z m79 89 c3 -9 6 -90 6 -181 0 -151 -1 -164 -17
-161 -15 3 -19 20 -26 103 -12 165 -12 222 2 239 17 20 27 20 35 0z m140 -15
c8 -41 8 -243 0 -292 -4 -21 -12 -36 -18 -34 -16 5 -30 294 -17 330 14 36 27
34 35 -4z m73 -155 c5 -152 4 -171 -10 -177 -9 -3 -20 -1 -24 6 -8 13 -4 336
4 350 15 25 24 -27 30 -179z m87 170 c8 -20 6 -280 -3 -319 -4 -21 -12 -30
-26 -30 -19 0 -20 8 -22 170 -2 94 -1 176 2 183 6 17 42 15 49 -4z m71 -155
c8 -174 4 -198 -29 -186 -11 4 -14 15 -11 34 2 15 7 94 11 176 3 81 10 147 14
147 4 0 11 -77 15 -171z m79 134 c8 -49 8 -271 0 -301 -9 -32 -27 -22 -36 19
-11 47 -15 291 -5 307 16 24 34 12 41 -25z m84 -98 c2 -72 0 -154 -3 -183 -6
-47 -9 -53 -28 -50 -21 3 -21 6 -19 176 1 95 4 178 8 183 3 6 13 9 22 7 15 -3
17 -22 20 -133z m82 30 c11 -101 12 -377 1 -415 -6 -20 -9 -13 -12 31 -3 31
-15 74 -26 95 -18 36 -20 56 -19 189 1 104 6 158 16 178 7 15 17 24 21 20 5
-5 13 -49 19 -98z m84 89 c8 -21 6 -455 -2 -519 -6 -41 -11 -50 -27 -50 -20 0
-20 7 -20 288 0 159 2 291 4 293 10 10 39 3 45 -12z m74 -276 c-3 -285 -4
-293 -23 -293 -23 0 -22 -25 -10 343 6 193 11 242 22 242 11 0 13 -51 11 -292z
m239 265 c11 -37 10 -411 0 -495 -9 -68 -22 -84 -45 -55 -6 8 -7 101 -2 267 8
251 14 310 31 310 5 0 12 -12 16 -27z m84 -83 c-2 -161 -22 -474 -31 -484 -19
-20 -26 37 -19 159 4 72 7 199 8 283 1 151 1 153 22 150 21 -3 22 -8 20 -108z
m81 -156 c2 -278 -3 -334 -33 -334 -36 0 -44 40 -31 153 7 56 12 138 12 182 0
82 16 241 27 258 17 28 24 -35 25 -259z m72 251 c9 -23 20 -528 12 -558 -7
-30 -40 -38 -49 -12 -7 18 1 564 9 576 8 14 21 11 28 -6z m105 -12 c24 -52 11
-543 -15 -564 -10 -9 -17 -9 -28 0 -10 9 -14 71 -18 283 -3 150 -3 280 0 290
7 28 47 23 61 -9z m78 -273 c-1 -151 -6 -280 -10 -287 -4 -7 -14 -10 -22 -6
-12 4 -15 26 -15 107 1 143 18 464 26 477 18 30 23 -37 21 -291z m81 3 c-3
-290 -4 -298 -23 -298 -19 0 -20 8 -23 275 -1 151 0 285 3 298 3 13 13 22 25
22 20 0 20 -6 18 -297z m79 17 c10 -345 12 -315 -12 -315 -12 0 -22 9 -26 25
-12 43 -10 529 2 552 6 11 15 16 19 12 5 -5 12 -128 17 -274z m98 218 c4 -35
3 -169 -2 -298 -8 -226 -9 -235 -28 -235 -17 0 -21 9 -27 70 -8 91 -11 502 -3
515 3 6 17 10 30 10 21 0 24 -5 30 -62z m87 17 c11 -64 9 -169 -7 -315 -8 -74
-15 -156 -15 -181 0 -32 -5 -49 -15 -52 -8 -4 -17 -2 -21 4 -7 11 6 569 13
582 12 21 38 -1 45 -38z m58 -315 c-7 -124 -15 -229 -19 -233 -5 -4 -14 -1
-21 8 -10 12 -10 53 -1 212 12 205 28 350 39 368 13 19 14 -131 2 -355z m232
288 c2 -40 1 -174 -2 -298 -5 -217 -6 -225 -25 -225 -20 0 -20 5 -16 290 2
160 5 293 8 298 2 4 10 7 18 7 10 0 14 -20 17 -72z m80 35 c2 -20 1 -100 -3
-177 -4 -78 -8 -194 -8 -258 -1 -116 -9 -144 -34 -119 -9 9 -11 87 -9 284 2
150 5 280 8 290 3 9 14 17 24 17 13 0 19 -9 22 -37z m84 -50 c10 -116 10 -158
0 -346 -7 -128 -11 -160 -24 -164 -33 -13 -42 25 -42 176 1 222 22 421 45 421
9 0 15 -25 21 -87z m78 -234 c5 -212 4 -258 -8 -268 -24 -20 -54 1 -46 34 1 6
6 128 10 272 8 255 17 327 31 253 4 -19 9 -150 13 -291z m63 294 c18 -70 0
-587 -21 -580 -12 4 -22 539 -11 585 7 30 23 28 32 -5z m171 -207 c2 -129 1
-244 -3 -255 -4 -13 -15 -21 -27 -21 -21 0 -21 1 -15 245 4 135 9 250 12 255
4 6 12 10 18 10 9 0 13 -62 15 -234z m78 157 c7 -78 0 -281 -12 -341 -4 -22
-12 -32 -25 -32 -16 0 -18 13 -18 164 -2 178 13 286 38 286 5 0 13 -35 17 -77z
m64 -117 c0 -152 -3 -186 -15 -196 -30 -25 -30 -22 -23 225 2 77 7 146 12 153
20 32 26 -12 26 -182z m63 180 c3 -8 8 -60 12 -117 7 -122 -3 -192 -28 -197
-15 -3 -17 9 -17 131 0 136 6 197 20 197 4 0 10 -6 13 -14z m86 -97 c2 -71 0
-95 -14 -115 -9 -14 -19 -23 -22 -20 -12 11 -13 207 -2 228 20 37 34 2 38 -93z
m103 89 c-7 -7 -12 -8 -12 -2 0 14 12 26 19 19 2 -3 -1 -11 -7 -17z m243 -180
c3 -112 3 -234 -2 -273 -8 -67 -9 -70 -36 -73 l-27 -3 6 248 c5 199 10 253 22
276 9 15 19 27 23 27 4 0 10 -91 14 -202z m-5767 -61 c-1 -200 -2 -224 -8
-137 -4 58 -13 132 -19 164 -14 74 -14 166 -1 201 23 61 30 9 28 -228z m70 -3
c1 -137 0 -259 -3 -271 -14 -58 -23 -9 -29 162 -8 205 0 368 18 362 8 -3 12
-80 14 -253z m121 -24 c0 -224 -3 -280 -14 -280 -20 0 -27 131 -16 347 8 173
13 213 27 213 2 0 4 -126 3 -280z m150 55 c-3 -304 -4 -324 -16 -336 -7 -7
-14 -5 -23 5 -14 18 -14 113 0 347 5 85 10 167 10 182 0 21 4 28 16 25 14 -3
15 -29 13 -223z m144 -50 c-1 -177 -6 -272 -13 -279 -20 -20 -31 16 -25 84 3
36 6 149 5 251 0 189 3 223 24 216 8 -3 10 -80 9 -272z m81 223 c9 -68 -4
-507 -16 -514 -5 -3 -15 0 -23 6 -12 10 -15 40 -15 139 0 129 17 398 26 413
12 19 22 4 28 -44z m76 -220 c0 -150 -4 -279 -9 -287 -5 -7 -15 -11 -22 -9
-11 4 -13 41 -11 189 4 258 14 379 32 379 6 0 10 -106 10 -272z m69 39 c-1
-245 -7 -318 -28 -325 -11 -4 -13 38 -8 254 3 143 8 269 12 281 18 56 25 -5
24 -210z m143 -3 c-3 -263 -9 -335 -26 -328 -9 3 -11 71 -10 257 2 253 7 311
28 304 7 -2 10 -71 8 -233z m153 -54 c-8 -247 -13 -280 -38 -280 -20 0 -20 4
-14 148 6 146 22 325 34 392 14 74 24 -82 18 -260z m215 278 c0 -7 1 -134 2
-283 3 -233 1 -270 -12 -273 -13 -2 -15 30 -18 235 -2 242 3 333 19 333 5 0 9
-6 9 -12z m81 -59 c9 -86 11 -429 3 -468 -7 -36 -31 -41 -39 -8 -9 37 -11 469
-2 510 12 57 31 40 38 -34z m72 -86 c9 -219 -5 -434 -27 -412 -4 4 -9 499 -7
557 1 6 7 12 15 12 10 0 15 -34 19 -157z m73 80 c6 -71 -11 -481 -21 -491 -2
-3 -11 -2 -20 2 -12 4 -15 13 -10 35 3 16 8 134 9 262 2 129 7 242 11 252 14
34 23 16 31 -60z m75 46 c9 -30 9 -276 0 -424 -5 -94 -9 -110 -23 -113 -29 -6
-41 42 -32 128 4 41 6 132 5 201 -3 132 12 243 32 236 6 -2 14 -14 18 -28z
m75 -46 c10 -108 -1 -472 -15 -486 -30 -30 -34 10 -28 260 6 244 11 303 27
303 5 0 12 -35 16 -77z m72 -139 c4 -245 -3 -354 -23 -354 -24 0 -27 38 -20
283 7 262 9 291 28 284 9 -3 13 -60 15 -213z m77 197 c7 -22 -12 -513 -21
-536 -3 -8 -11 -15 -16 -15 -12 0 -6 525 6 553 11 22 23 22 31 -2z m308 -152
c8 -176 -3 -383 -21 -401 -8 -8 -15 -8 -26 1 -12 10 -13 49 -9 239 5 235 16
336 36 329 8 -2 15 -58 20 -168z m155 -81 c2 -255 -3 -323 -28 -323 -13 0 -15
40 -12 279 2 154 5 283 8 288 3 5 11 7 17 5 9 -3 13 -74 15 -249z m1226 200
c3 -29 6 -160 6 -290 0 -231 -1 -238 -20 -238 -13 0 -22 9 -26 27 -9 33 2 512
11 536 12 30 22 18 29 -35z m1070 37 c3 -8 3 -21 0 -29 -3 -8 -9 -133 -12
-278 -7 -254 -8 -263 -27 -263 -23 0 -24 23 -11 310 10 223 28 317 50 260z
m71 -12 c10 -40 -6 -536 -18 -551 -7 -9 -13 -9 -23 -1 -11 9 -12 55 -8 227 7
283 26 414 49 325z m905 -29 c0 -12 -3 -29 -6 -38 -11 -30 -24 -5 -24 47 1 48
2 50 15 33 8 -11 15 -30 15 -42z m-5217 -170 c-3 -224 -12 -332 -28 -324 -10
5 -10 472 1 518 2 13 10 22 17 19 9 -3 11 -56 10 -213z m516 -42 c-1 -246 -5
-294 -24 -293 -10 1 -9 497 1 534 3 9 10 15 15 12 5 -4 9 -111 8 -253z m1654
106 c4 -92 2 -181 -4 -223 -6 -38 -11 -94 -12 -124 -1 -30 -7 -56 -13 -58 -7
-2 -9 80 -6 264 2 148 5 274 7 281 13 40 23 -6 28 -140z m217 -9 c8 -155 7
-179 -14 -179 -12 0 -22 284 -11 321 12 38 17 10 25 -142z m-2240 73 c-1 -37
2 -114 5 -172 8 -142 -4 -284 -26 -288 -12 -2 -18 7 -21 35 -7 56 6 476 15
491 17 26 28 -2 27 -66z m746 -220 c2 -210 1 -244 -12 -249 -9 -3 -22 1 -30 8
-11 12 -12 36 -4 139 5 69 10 173 10 231 0 59 3 122 7 140 l7 34 9 -30 c5 -16
11 -139 13 -273z m8035 282 c-18 -8 -41 -13 -50 -11 -22 5 25 26 59 26 23 -1
22 -2 -9 -15z m-91 -24 c0 -10 -92 -40 -123 -40 -38 0 -9 25 42 37 29 6 55 14
58 17 7 7 23 -2 23 -14z m-224 -28 c70 -51 112 -106 119 -156 7 -46 2 -76 -12
-75 -4 0 -24 32 -43 72 -30 61 -41 75 -77 92 -38 18 -42 23 -43 58 0 20 4 37
8 37 5 0 27 -13 48 -28z m-7067 -274 c1 -185 0 -198 -18 -208 -11 -5 -22 -6
-25 -1 -7 11 12 437 21 476 7 28 8 26 14 -20 4 -27 8 -139 8 -247z m7396 283
c-9 -9 -92 -41 -157 -61 -45 -14 -32 7 15 24 36 13 133 43 147 45 2 1 0 -3 -5
-8z m-3532 -261 c-3 -102 -10 -193 -15 -202 -5 -10 -18 -18 -28 -18 -18 0 -20
7 -20 58 0 138 20 336 37 361 15 24 17 24 24 6 4 -11 5 -103 2 -205z m-5764
143 c1 -7 -3 -13 -9 -13 -5 0 -10 15 -9 33 0 27 2 29 9 12 5 -11 9 -26 9 -32z
m8941 -11 c0 -4 -6 -14 -12 -20 -10 -10 -10 -15 2 -22 11 -7 9 -11 -13 -19
-16 -6 -34 -11 -41 -11 -7 0 -24 -9 -38 -19 -16 -13 -29 -17 -38 -11 -13 8
-13 15 0 51 8 24 21 44 28 47 7 2 10 -2 6 -12 -11 -29 26 -31 54 -2 26 25 52
34 52 18z m210 4 c0 -3 -4 -8 -10 -11 -5 -3 -10 -1 -10 4 0 6 5 11 10 11 6 0
10 -2 10 -4z m-11667 -40 c3 -18 1 -65 -3 -102 -5 -38 -9 -93 -10 -122 0 -38
-4 -52 -12 -49 -10 3 -12 35 -10 128 3 132 9 179 21 179 5 0 11 -15 14 -34z
m8188 -164 c-6 -116 -11 -156 -22 -168 -14 -13 -17 -13 -29 1 -10 12 -11 29
-1 85 6 38 11 94 11 125 0 57 26 133 40 118 4 -4 5 -77 1 -161z m-5711 113 c1
-11 1 -29 0 -40 l-1 -20 -9 20 c-12 27 -12 82 -1 70 5 -6 10 -19 11 -30z
m9237 -11 c-16 -8 -36 -13 -45 -11 -14 3 -12 6 8 15 14 6 34 11 45 11 16 0 15
-3 -8 -15z m-267 -40 c0 -7 -66 -34 -85 -34 -21 0 -9 19 19 30 24 10 66 13 66
4z m-432 -89 c1 -25 -1 -27 -8 -10 -5 11 -8 36 -8 55 0 32 1 33 8 10 4 -14 8
-38 8 -55z m-2913 -59 c-4 -54 -12 -89 -21 -97 -8 -6 -17 -10 -20 -7 -3 3 -5
41 -6 84 -1 59 3 88 17 114 17 34 18 34 28 13 5 -13 7 -57 2 -107z m-2538 90
c4 -3 -61 -6 -143 -7 -159 0 -225 -11 -144 -23 25 -4 107 -6 182 -4 102 2 140
0 150 -10 7 -7 15 -46 18 -92 l5 -79 -60 -6 c-33 -3 -159 -5 -280 -3 l-220 3
-8 48 c-4 27 -4 68 0 90 l9 42 69 10 c48 7 64 13 52 18 -10 4 -30 7 -43 7 -13
0 -24 4 -24 10 0 10 427 7 437 -4z m164 -16 c28 -28 30 -33 25 -92 -5 -75 -12
-95 -36 -108 -39 -21 -50 -3 -50 79 0 94 -7 119 -32 127 -16 5 -18 8 -7 15 29
18 70 9 100 -21z m5889 7 c0 -28 -56 -117 -74 -117 -6 0 -28 12 -49 26 -55 37
-48 61 28 90 78 30 95 30 95 1z m-270 0 c0 -8 -9 -22 -20 -32 -11 -10 -20 -25
-20 -33 0 -8 24 -41 54 -73 68 -73 75 -93 45 -125 -29 -31 -124 -78 -139 -69
-7 4 -9 45 -6 121 4 105 7 119 35 169 30 53 51 70 51 42z m-11420 -41 c0 -34
-32 -87 -45 -74 -9 9 24 108 36 108 5 0 9 -15 9 -34z m2479 -61 c0 -26 -2 -27
-9 -10 -5 11 -9 31 -9 45 -1 20 1 22 9 10 5 -8 9 -28 9 -45z m5621 -33 c0 -40
-15 -72 -35 -72 -19 0 -21 77 -3 115 11 25 13 26 25 9 7 -10 13 -33 13 -52z
m3585 4 c-38 -80 -212 -262 -232 -242 -4 4 32 43 80 87 49 45 97 100 109 123
26 52 59 99 65 93 2 -3 -7 -30 -22 -61z m-116 -10 c14 -14 20 -26 15 -26 -6 0
-26 16 -45 36 -20 22 -26 32 -14 26 11 -6 31 -22 44 -36z m151 -33 c-45 -92
-161 -208 -250 -251 -88 -41 -127 -50 -63 -14 125 71 230 170 299 282 20 33
39 58 42 55 3 -2 -10 -35 -28 -72z m-3709 -30 c-6 -13 -15 -23 -21 -23 -20 0
-22 28 -4 61 l17 34 9 -25 c6 -16 5 -33 -1 -47z m3539 -6 c0 -6 -9 -2 -20 8
-11 10 -20 23 -20 28 0 6 9 2 20 -8 11 -10 20 -23 20 -28z m-3620 -16 c0 -11
-31 -24 -39 -16 -3 3 1 10 9 15 19 12 30 12 30 1z m-5265 -71 c3 -5 -6 -12
-20 -16 -31 -8 -95 3 -95 16 0 13 107 13 115 0z m8645 -35 c0 -8 -4 -15 -10
-15 -5 0 -7 7 -4 15 4 8 8 15 10 15 2 0 4 -7 4 -15z m-7940 -65 c0 -11 -118
-46 -185 -54 -61 -7 -31 8 35 18 25 4 59 15 75 26 32 20 75 26 75 10z m116
-15 c-7 -28 -4 -30 25 -15 30 17 22 -4 -11 -28 -29 -22 -39 -42 -21 -42 4 0
39 23 76 50 75 56 103 65 61 21 -44 -46 -27 -58 26 -18 25 19 55 40 67 46 34
19 26 -6 -14 -42 -57 -50 -43 -80 15 -31 59 50 41 16 -22 -41 -115 -104 -263
-177 -427 -210 -154 -32 -423 -7 -524 47 -16 8 -17 12 -6 19 12 8 12 11 -1 19
-11 7 -18 5 -27 -6 -10 -14 -15 -14 -44 2 -32 16 -33 17 -11 25 25 9 28 19 10
37 -10 10 -10 15 2 22 12 7 12 13 1 33 -7 13 -11 33 -9 43 3 16 11 19 48 16
l45 -3 -27 25 c-29 26 -36 46 -17 46 6 0 41 -13 79 -30 99 -44 181 -60 304
-60 125 0 246 25 341 70 33 15 62 29 64 29 2 1 0 -10 -3 -24z m394 16 c0 -16
-75 -105 -126 -150 -201 -178 -487 -276 -747 -257 -96 7 -117 13 -117 30 0 8
52 11 182 11 171 1 189 3 273 29 169 51 333 152 455 277 64 66 80 78 80 60z
m-798 -12 c-15 -6 -30 -5 -40 1 -13 7 -8 9 23 9 35 0 37 -1 17 -10z m-99 -36
c-7 -2 -21 -2 -30 0 -10 3 -4 5 12 5 17 0 24 -2 18 -5z m8048 -80 c-10 -17
-10 -16 -11 3 0 23 13 41 18 25 2 -6 -1 -18 -7 -28z m-31 -83 c-16 -31 -23
-18 -8 15 7 15 14 23 16 17 2 -6 -2 -21 -8 -32z m-8360 -65 c15 -18 -15 -28
-41 -15 -19 11 -24 22 -13 32 8 8 42 -2 54 -17z m-204 -40 c-25 -38 -21 -58
10 -51 l26 7 -23 -33 c-41 -59 -163 -173 -225 -211 -34 -20 -65 -37 -69 -37
-4 0 30 39 75 87 44 48 98 114 120 148 35 55 86 115 97 115 3 0 -2 -11 -11
-25z m324 -10 c10 -12 9 -16 -4 -21 -22 -8 -46 2 -46 21 0 19 34 20 50 0z
m101 -25 c5 0 9 -7 9 -15 0 -17 -45 -21 -55 -5 -9 15 5 32 22 26 8 -3 19 -6
24 -6z m7899 -195 c0 -2 -10 -10 -22 -16 -21 -11 -22 -11 -9 4 13 16 31 23 31
12z"/>
<path d="M205 3070 c3 -5 8 -10 11 -10 2 0 4 5 4 10 0 6 -5 10 -11 10 -5 0 -7
-4 -4 -10z"/>
<path d="M127 3004 c-9 -10 2 -24 19 -24 8 0 14 7 14 15 0 15 -21 21 -33 9z"/>
<path d="M120 2924 c0 -8 5 -12 10 -9 6 4 8 11 5 16 -9 14 -15 11 -15 -7z"/>
<path d="M60 2746 c0 -14 5 -26 10 -26 6 0 10 9 10 19 0 11 -4 23 -10 26 -6 4
-10 -5 -10 -19z"/>
<path d="M8566 3681 c-4 -6 -2 -74 3 -153 6 -78 16 -295 22 -483 7 -188 16
-346 22 -352 13 -18 62 -16 77 2 10 13 12 65 6 248 -5 128 -11 336 -15 462 -3
127 -10 236 -14 243 -12 17 -35 15 -39 -5 -2 -9 0 -72 4 -139 13 -208 25 -628
19 -644 -12 -34 -21 69 -30 355 -13 368 -19 451 -36 465 -9 7 -15 8 -19 1z"/>
<path d="M8696 3661 c-3 -4 -1 -93 4 -197 5 -104 11 -322 15 -484 7 -313 9
-340 31 -340 23 0 26 42 15 192 -6 79 -13 267 -16 418 -7 346 -12 420 -30 420
-8 0 -16 -4 -19 -9z"/>
<path d="M9687 3613 c-3 -32 -5 -119 -4 -193 2 -128 3 -135 22 -135 18 0 20 8
23 100 3 129 -10 277 -24 282 -8 3 -14 -17 -17 -54z"/>
<path d="M9763 3643 c-12 -42 -8 -312 5 -325 7 -7 15 -2 27 16 12 18 23 25 35
21 23 -7 31 5 40 69 6 44 8 46 9 15 1 -38 22 -57 39 -36 5 7 12 58 15 115 4
89 3 105 -13 125 -10 12 -21 19 -24 16 -4 -3 -10 -33 -14 -65 l-9 -59 -7 50
c-11 71 -16 87 -29 82 -17 -5 -28 -58 -22 -107 4 -25 2 -56 -4 -70 -8 -19 -10
-5 -10 66 -1 67 -5 95 -16 104 -12 10 -16 7 -22 -17z"/>
<path d="M10026 3648 c-8 -30 -8 -172 0 -192 9 -22 31 -20 44 4 10 19 12 19
27 5 24 -25 36 -4 41 70 6 88 -4 135 -27 135 -11 0 -22 -10 -25 -22 l-7 -23
-11 23 c-6 12 -17 22 -23 22 -7 0 -15 -10 -19 -22z"/>
<path d="M8767 3653 c-3 -5 0 -118 4 -253 5 -135 11 -352 12 -483 4 -231 9
-269 35 -253 6 3 14 21 18 39 6 30 7 31 15 10 11 -30 25 -29 43 5 l15 27 1
-27 c0 -36 10 -58 25 -58 22 0 28 38 20 139 -4 53 -10 263 -14 468 -4 277 -9
375 -18 385 -8 7 -16 8 -22 3 -6 -6 -6 -153 0 -370 5 -198 6 -387 1 -420 -9
-64 -17 81 -31 575 -5 194 -8 215 -23 218 -16 3 -18 -6 -18 -90 0 -51 5 -190
11 -308 11 -228 2 -523 -12 -390 -4 36 -10 218 -14 405 -3 187 -8 350 -11 363
-4 21 -28 30 -37 15z"/>
<path d="M8964 3468 c3 -101 9 -317 12 -481 4 -164 11 -300 16 -303 5 -3 17 1
27 10 13 12 20 13 29 4 8 -8 15 -8 21 -3 12 13 -5 935 -18 948 -26 26 -29 -16
-25 -350 2 -210 0 -332 -5 -308 -5 22 -12 173 -16 335 -4 162 -9 303 -11 313
-3 9 -12 17 -21 17 -14 0 -15 -21 -9 -182z m63 -620 c-3 -7 -5 -2 -5 12 0 14
2 19 5 13 2 -7 2 -19 0 -25z"/>
<path d="M1020 3729 c0 -5 5 -7 10 -4 6 3 10 8 10 11 0 2 -4 4 -10 4 -5 0 -10
-5 -10 -11z"/>
<path d="M920 3651 c-7 -13 -7 -22 0 -26 15 -9 30 4 30 26 0 25 -16 25 -30 0z"/>
<path d="M859 3544 c-5 -15 -7 -29 -5 -32 10 -9 36 20 36 39 0 28 -19 23 -31
-7z"/>
<path d="M797 3453 c-12 -11 -7 -43 6 -43 23 0 38 22 26 37 -13 14 -22 16 -32
6z"/>
<path d="M600 3091 c-7 -13 -7 -22 0 -26 15 -9 30 4 30 26 0 25 -16 25 -30 0z"/>
<path d="M410 3060 c0 -5 5 -10 10 -10 6 0 10 5 10 10 0 6 -4 10 -10 10 -5 0
-10 -4 -10 -10z"/>
<path d="M515 3000 c-3 -5 -1 -10 4 -10 6 0 11 5 11 10 0 6 -2 10 -4 10 -3 0
-8 -4 -11 -10z"/>
<path d="M567 2994 c-11 -11 -8 -44 3 -44 15 0 24 30 13 41 -5 5 -12 6 -16 3z"/>
<path d="M370 2936 c0 -14 4 -27 9 -31 12 -7 25 31 16 45 -11 18 -25 10 -25
-14z"/>
<path d="M434 2936 c-4 -16 -2 -32 4 -38 8 -8 13 -3 18 16 4 16 2 32 -4 38 -8
8 -13 3 -18 -16z"/>
<path d="M495 2910 c-3 -5 1 -10 9 -10 9 0 16 5 16 10 0 6 -4 10 -9 10 -6 0
-13 -4 -16 -10z"/>
<path d="M3311 3128 c1 -249 4 -500 8 -558 l6 -104 420 3 c231 2 440 6 465 10
l45 6 -1 55 c-3 217 -16 770 -20 888 l-6 143 -437 -7 c-327 -5 -440 -4 -445 4
-4 7 -14 12 -22 12 -12 0 -14 -65 -13 -452z m880 385 c7 -18 11 -203 12 -513
l2 -485 -120 -6 c-166 -9 -714 -13 -722 -5 -3 3 -8 235 -11 516 l-5 510 359 3
c198 1 385 3 417 5 54 2 58 1 68 -25z"/>
<path d="M10381 2420 c-166 -45 -302 -139 -411 -285 -120 -160 -155 -264 -155
-460 0 -153 21 -241 86 -366 66 -127 219 -274 357 -343 172 -87 412 -88 614
-5 175 72 299 190 384 364 69 143 89 238 81 385 -8 131 -26 201 -82 315 -94
189 -248 318 -460 385 -103 33 -311 38 -414 10z m364 -20 c82 -21 167 -57 200
-84 15 -13 9 -12 -22 3 -152 74 -372 96 -528 52 -229 -64 -407 -236 -488 -469
-42 -122 -49 -264 -18 -376 49 -178 138 -321 259 -418 213 -170 460 -202 725
-96 99 40 106 35 15 -10 -230 -113 -533 -87 -733 63 -136 102 -253 279 -291
440 -21 90 -21 249 0 339 25 104 89 249 140 314 85 108 235 203 385 243 94 25
255 25 356 -1z m40 -74 c216 -69 367 -223 445 -456 45 -134 36 -341 -20 -450
l-20 -40 -58 29 c-60 30 -173 71 -195 71 -18 0 -43 -29 -49 -57 -4 -16 13 -42
78 -113 88 -96 102 -130 64 -150 -16 -8 -23 -5 -44 22 -14 18 -44 57 -67 87
-50 64 -114 98 -162 84 -42 -12 -50 -48 -31 -138 37 -172 38 -187 18 -202 -10
-7 -29 -13 -43 -13 -23 0 -26 4 -29 42 -4 64 -49 230 -64 239 -7 5 -30 9 -50
9 -47 0 -71 -30 -123 -152 -20 -48 -43 -92 -51 -99 -15 -13 -50 -7 -78 14 -18
13 -16 18 34 119 l53 106 -19 38 c-39 80 -98 71 -201 -28 -72 -71 -73 -71 -94
-52 -54 49 -45 73 48 126 68 38 95 77 101 142 3 45 1 54 -22 75 l-26 24 -115
-13 c-79 -9 -119 -10 -126 -3 -11 11 -15 110 -5 120 3 3 11 1 18 -5 15 -12
173 -19 204 -8 30 9 48 55 35 88 -13 35 -83 75 -154 89 -72 15 -87 5 -87 -60
0 -25 -5 -53 -10 -61 -7 -11 -10 2 -10 42 0 56 26 145 53 182 12 16 15 15 51
-13 52 -41 142 -74 185 -67 42 7 81 42 81 73 0 13 -7 38 -16 56 -23 42 -123
147 -142 147 -24 0 35 57 93 91 28 16 55 29 60 29 6 -1 -2 -8 -17 -16 -27 -14
-33 -24 -28 -54 2 -18 94 -151 120 -175 27 -24 66 -22 96 5 21 20 24 32 24 90
0 77 -24 168 -47 177 -8 3 -35 1 -59 -4 -60 -14 -46 2 19 21 78 22 103 25 207
21 66 -3 120 -12 175 -29z m360 -177 c11 -17 -1 -21 -15 -4 -8 9 -8 15 -2 15
6 0 14 -5 17 -11z m-1109 -107 c-18 -16 -18 -16 -6 6 6 13 14 21 18 18 3 -4
-2 -14 -12 -24z m60 -527 c8 -20 17 -55 20 -78 5 -38 3 -44 -19 -56 -47 -25
-97 24 -100 100 -2 37 2 45 23 56 42 21 60 16 76 -22z m1004 -214 c-11 -21
-30 -29 -30 -12 0 12 31 43 37 37 3 -2 0 -14 -7 -25z m-847 -41 c35 -28 51
-79 36 -114 -15 -31 -37 -33 -73 -5 -26 20 -56 68 -56 89 0 15 38 50 54 50 7
0 25 -9 39 -20z m693 -74 c10 -26 -16 -56 -76 -86 -65 -33 -85 -31 -94 6 -9
34 -3 40 57 59 28 10 56 21 62 26 14 14 45 11 51 -5z m-318 -84 c6 -9 12 -29
12 -45 l0 -30 -69 7 c-113 10 -137 27 -111 75 8 16 19 18 82 14 50 -4 77 -10
86 -21z m-128 -92 c24 -8 24 -8 -7 -9 -17 -1 -35 4 -38 9 -7 11 9 11 45 0z"/>
<path d="M10580 2322 c-20 -16 -21 -23 -14 -130 8 -123 24 -162 68 -162 45 0
73 35 106 136 35 107 34 134 -7 153 -45 22 -129 23 -153 3z"/>
<path d="M10843 2197 c-74 -98 -91 -193 -45 -240 20 -20 20 -20 65 2 42 20 72
53 145 157 l22 32 -21 26 c-23 29 -88 66 -116 66 -10 0 -33 -20 -50 -43z"/>
<path d="M11007 1968 c-97 -64 -117 -87 -117 -137 0 -50 20 -57 119 -38 48 9
110 24 139 32 45 14 52 19 52 41 0 73 -46 164 -83 164 -7 0 -57 -28 -110 -62z"/>
<path d="M10495 1971 c-77 -20 -161 -85 -196 -153 -21 -40 -38 -134 -20 -108
6 8 11 23 11 32 0 22 21 68 31 68 4 0 3 -15 -2 -32 -6 -18 -10 -65 -11 -104 0
-88 22 -144 87 -213 59 -63 120 -86 209 -79 103 9 175 58 224 153 73 144 12
327 -136 408 -54 29 -144 42 -197 28z m15 -106 c0 -19 -20 -29 -32 -17 -8 8
-7 16 2 26 14 17 30 12 30 -9z m188 -27 c-4 -29 -38 -38 -38 -10 0 22 8 32 27
32 9 0 13 -8 11 -22z m-223 -38 c-3 -5 -13 -10 -21 -10 -8 0 -12 5 -9 10 3 6
13 10 21 10 8 0 12 -4 9 -10z m281 -49 c-17 -19 -17 -20 6 -23 18 -2 24 -10
26 -36 6 -63 -59 -46 -73 19 -8 35 8 59 38 59 19 0 19 -1 3 -19z m-132 -12
c57 -45 19 -159 -54 -159 -33 0 -35 3 -20 30 14 26 -4 34 -25 10 -10 -11 -33
-25 -53 -31 -32 -11 -37 -10 -54 11 -23 28 -24 102 -2 124 21 22 61 20 92 -5
26 -20 26 -20 33 0 7 17 34 40 50 41 4 0 18 -9 33 -21z m116 -209 c0 -5 -5
-10 -11 -10 -5 0 -7 5 -4 10 3 6 8 10 11 10 2 0 4 -4 4 -10z"/>
<path d="M11080 1699 c-111 -19 -133 -32 -146 -86 -9 -35 9 -48 91 -67 39 -9
90 -21 114 -28 42 -12 44 -12 67 16 22 25 25 36 22 105 -4 91 4 88 -148 60z"/>
<path d="M1830 2375 c-175 -35 -325 -130 -426 -270 -23 -32 -14 -26 47 31 87
81 139 119 226 162 73 37 192 72 245 72 21 0 38 5 38 10 0 13 -50 11 -130 -5z"/>
<path d="M1980 2379 c0 -5 5 -7 10 -4 6 3 10 8 10 11 0 2 -4 4 -10 4 -5 0 -10
-5 -10 -11z"/>
<path d="M2030 2380 c0 -5 5 -10 10 -10 6 0 10 5 10 10 0 6 -4 10 -10 10 -5 0
-10 -4 -10 -10z"/>
<path d="M2095 2370 c3 -5 21 -10 38 -10 24 0 28 3 17 10 -20 13 -63 13 -55 0z"/>
<path d="M2190 2352 c0 -4 26 -17 58 -29 86 -34 171 -94 249 -177 81 -84 134
-173 171 -284 23 -67 26 -94 26 -207 -1 -149 -21 -228 -89 -352 -46 -82 -175
-213 -257 -261 -106 -62 -248 -100 -388 -103 -50 -1 -52 -2 -25 -10 49 -16
202 -3 282 24 118 40 200 92 293 186 123 125 181 237 211 408 50 284 -126 630
-383 756 -75 37 -148 61 -148 49z"/>
<path d="M1820 2330 c-115 -30 -212 -84 -301 -168 -90 -84 -147 -166 -187
-267 -35 -89 -41 -60 -8 36 14 40 24 75 22 77 -3 2 -16 -16 -30 -41 -38 -65
-66 -185 -66 -288 0 -85 22 -225 42 -262 17 -33 19 -11 3 54 -8 35 -14 104
-13 154 l1 90 9 -70 c34 -262 124 -430 291 -549 77 -54 124 -78 213 -108 58
-19 88 -23 194 -22 108 1 136 4 205 28 210 71 368 220 446 420 41 105 50 244
25 381 -71 379 -470 632 -846 535z m263 -20 c5 -4 -2 -10 -16 -14 -21 -5 -26
-16 -40 -90 -29 -147 -20 -206 31 -206 42 0 64 21 117 111 60 104 63 136 15
162 l-35 18 33 -5 c51 -9 150 -60 214 -111 107 -84 198 -226 232 -361 36 -141
13 -337 -55 -464 -114 -215 -352 -360 -589 -360 -123 0 -275 49 -376 122 -43
30 -44 33 -23 38 29 7 106 117 115 165 4 21 1 48 -6 65 -11 26 -17 30 -53 30
-31 0 -58 -11 -114 -46 -44 -27 -73 -52 -73 -62 0 -9 16 -37 35 -61 42 -53 36
-71 -7 -21 -60 69 -106 151 -134 237 -26 77 -29 102 -29 208 0 154 30 252 107
361 l30 42 77 -80 c66 -67 84 -80 118 -85 47 -6 73 14 73 57 0 15 -21 70 -47
121 -37 73 -54 95 -73 99 -24 6 -24 6 11 33 69 52 182 90 334 111 38 5 118 -3
128 -14z m-469 -982 c15 -13 29 -37 32 -55 5 -26 1 -37 -20 -58 -25 -25 -27
-25 -56 -10 -63 32 -80 107 -30 132 35 18 45 16 74 -9z"/>
<path d="M1817 2275 c-58 -16 -87 -40 -87 -72 0 -38 64 -167 95 -191 38 -30
61 -28 101 12 34 34 34 35 34 124 0 121 -8 142 -57 141 -21 0 -60 -7 -86 -14z"/>
<path d="M2281 2143 c-42 -49 -91 -139 -91 -168 0 -27 29 -73 50 -80 33 -10
164 98 200 165 19 36 -35 111 -91 125 -22 6 -32 -1 -68 -42z"/>
<path d="M1837 1909 c-120 -61 -167 -147 -153 -280 15 -150 118 -253 266 -266
118 -11 221 42 286 149 34 55 39 71 38 123 0 35 -9 88 -23 127 -40 118 -143
189 -275 188 -51 -1 -74 -8 -139 -41z m33 -64 c0 -9 -7 -18 -16 -22 -18 -7
-39 11 -30 26 11 17 46 13 46 -4z m258 -47 c13 -13 17 -58 5 -58 -14 0 -43 34
-43 52 0 20 20 24 38 6z m-113 -80 c73 -33 25 -143 -66 -150 -29 -3 -34 0 -31
17 1 11 5 38 7 60 l5 40 -15 -44 c-21 -63 -50 -91 -96 -91 -51 0 -67 8 -84 41
-19 36 -19 69 1 97 18 26 76 30 129 8 38 -16 45 -13 45 22 0 23 2 24 40 18 21
-3 51 -11 65 -18z m185 -34 c0 -20 -29 -30 -43 -15 -9 10 -8 16 7 26 21 16 36
11 36 -11z m-30 -83 c0 -10 -7 -24 -15 -31 -13 -11 -15 -8 -15 19 0 21 5 31
15 31 8 0 15 -8 15 -19z m60 -51 c0 -21 -47 -76 -56 -67 -7 6 12 45 34 70 19
22 22 21 22 -3z m-100 -50 c0 -13 -7 -20 -20 -20 -19 0 -27 20 -13 33 13 14
33 6 33 -13z m-163 -26 c8 -21 -19 -46 -40 -38 -17 6 -23 35 -10 47 12 13 44
7 50 -9z"/>
<path d="M1417 1922 c-24 -26 -37 -68 -37 -117 0 -39 3 -44 31 -54 17 -6 66
-14 109 -17 73 -6 78 -5 94 17 19 27 20 68 3 89 -20 26 -142 100 -164 100 -11
0 -27 -8 -36 -18z"/>
<path d="M2398 1877 c-54 -28 -100 -60 -104 -70 -7 -23 20 -65 49 -76 28 -10
193 3 231 18 28 11 29 13 23 68 -3 32 -14 68 -25 82 -31 42 -65 37 -174 -22z"/>
<path d="M1415 1661 l-50 -6 2 -68 c1 -77 19 -161 37 -176 15 -13 172 42 204
71 40 39 23 122 -34 167 -28 22 -57 24 -159 12z m76 -41 c14 -8 19 -21 19 -50
0 -21 4 -50 10 -65 9 -23 7 -27 -24 -42 -69 -32 -100 -3 -101 95 0 62 43 90
96 62z"/>
<path d="M2306 1607 c-11 -16 -13 -35 -8 -72 l7 -49 69 -34 c96 -46 150 -60
171 -42 47 39 78 154 52 193 -14 22 -21 23 -146 25 -125 1 -132 1 -145 -21z"/>
<path d="M2208 1386 c-30 -20 -33 -27 -32 -72 1 -60 67 -214 93 -214 75 0 181
82 181 140 0 48 -14 65 -87 107 -114 64 -117 65 -155 39z m196 -112 c18 -7 21
-36 6 -64 -15 -27 -73 -60 -108 -60 -52 0 -46 25 21 79 73 59 62 52 81 45z"/>
<path d="M2000 1280 c-17 -17 -20 -35 -22 -115 -1 -52 -2 -105 -2 -117 -1 -33
33 -31 182 8 21 6 13 67 -19 134 -51 108 -94 135 -139 90z m130 -150 c18 -34
-3 -57 -59 -65 -28 -4 -55 -4 -61 0 -11 7 -14 68 -3 78 3 4 30 7 59 7 43 0 55
-4 64 -20z"/>
<path d="M1737 1201 c-31 -48 -57 -95 -57 -103 0 -15 136 -78 168 -78 36 0 42
20 42 137 0 113 0 114 -26 123 -56 22 -67 15 -127 -79z m93 -26 c35 -18 47
-56 31 -92 -10 -21 -16 -24 -44 -18 -40 8 -81 37 -85 59 -5 25 25 66 49 66 11
0 33 -7 49 -15z"/>
<path d="M1330 1333 c1 -42 175 -253 208 -253 10 0 -3 18 -33 48 -28 26 -76
84 -108 130 -56 78 -67 91 -67 75z"/>
<path d="M1570 1062 c0 -28 125 -95 209 -113 77 -16 82 -6 10 20 -35 13 -95
40 -134 60 -90 46 -85 44 -85 33z"/>
<path d="M3930 1350 c-8 -5 -12 -12 -8 -15 10 -10 49 5 43 16 -8 11 -16 11
-35 -1z"/>
<path d="M3340 1330 c0 -5 4 -10 9 -10 6 0 13 5 16 10 3 6 -1 10 -9 10 -9 0
-16 -4 -16 -10z"/>
<path d="M3950 1295 c-18 -21 -3 -32 16 -13 10 9 12 18 6 22 -5 3 -15 -1 -22
-9z"/>
<path d="M3290 1290 c0 -5 7 -10 15 -10 8 0 15 5 15 10 0 6 -7 10 -15 10 -8 0
-15 -4 -15 -10z"/>
<path d="M4147 1289 c-20 -12 -23 -29 -3 -29 17 0 40 26 29 33 -5 3 -16 1 -26
-4z"/>
<path d="M3350 1144 c0 -9 5 -14 12 -12 18 6 21 28 4 28 -9 0 -16 -7 -16 -16z"/>
</g>
</svg>
